<svg width="70" height="70" viewBox="0 0 70 70" fill="none" xmlns="http://www.w3.org/2000/svg">
  <g clip-path="url(#clip0)" id="ccheart">
    <path fill-rule="evenodd" clip-rule="evenodd"
      d="M50.7604 9.17041C44.7391 8.3113 39.5387 10.5289 35.0864 15.4053H35.0865C35.0834 15.4086 35.0683 15.4253 35.0515 15.4437C35.0277 15.4699 35.0006 15.4996 35.0006 15.4996C35.0006 15.4996 34.9233 15.4147 34.9151 15.4057C30.4627 10.5291 25.2622 8.31127 19.2408 9.17041C13.0259 10.0572 7.73446 14.5508 5.85324 20.6074C4.40568 25.2678 5.00658 30.4873 6.94504 35.247C9.95996 42.6499 18.8692 53.1726 35.0006 60.5292C51.132 53.1726 60.0412 42.6499 63.0561 35.247C64.9946 30.4873 65.5955 25.2678 64.1479 20.6074C62.2667 14.5508 56.9752 10.0572 50.7604 9.17041ZM3.0253 14.3861C10.034 2.78434 25.2758 0.770099 35.0006 8.48956C44.7253 0.770083 59.9671 2.78433 66.9758 14.3861C69.3029 18.2382 70.1769 22.7168 69.9715 27.1633C69.6152 34.876 66.3238 41.6181 61.4883 47.4357C54.978 55.2683 45.513 61.425 35.2077 66.0188C35.1995 66.0225 35.1867 66.0283 35.1711 66.0353C35.1229 66.0571 35.0482 66.0908 35.0006 66.1111C34.9429 66.0851 34.8545 66.0461 34.8144 66.0285L34.7947 66.0198C24.4361 61.4258 15.0235 55.2697 8.51282 47.4357C3.67766 41.6178 0.385865 34.876 0.0295768 27.1633C-0.175813 22.7169 0.698214 18.2382 3.0253 14.3861ZM30.2913 33.177L34.7185 35.3964C33.8998 37.3374 31.8566 39.1373 30.0176 40.0699C27.6414 41.2749 24.8472 41.4068 22.2811 40.8393C17.0182 39.6756 14.5682 35.2165 14.4769 30.0545C14.3875 25.0046 16.9366 20.3221 21.9696 18.9598C26.6994 17.6794 32.2793 19.2419 34.6603 23.8361L29.8264 26.3423C29.2724 25.0377 28.2358 23.5864 25.8028 23.4592C21.9952 23.2601 20.8807 26.9838 21.0125 30.208C21.109 32.5685 21.8604 35.3824 24.3989 36.0859C27.6329 36.9822 28.7525 35.4463 30.2913 33.177ZM51.1606 33.177L55.5878 35.3964C54.7691 37.3374 52.726 39.1373 50.887 40.0699C48.5107 41.2749 45.7166 41.4068 43.1505 40.8393C37.8876 39.6756 35.4375 35.2165 35.3462 30.0545C35.2568 25.0046 37.806 20.3221 42.8389 18.9598C47.5687 17.6794 53.1486 19.2419 55.5296 23.8361L50.6958 26.3423C50.1418 25.0377 49.1051 23.5864 46.6721 23.4592C42.8646 23.2601 41.75 26.9838 41.8819 30.208C41.9783 32.5685 42.7297 35.3824 45.2682 36.0859C48.5022 36.9822 49.6218 35.4463 51.1606 33.177Z"
      fill="black" />
  </g>
  <defs>
    <clipPath id="clip0">
      <path d="M0 0H70V70H0V0Z" fill="white" />
    </clipPath>
  </defs>
</svg>