<svg width="824" height="373" viewBox="0 0 824 373" fill="none" xmlns="http://www.w3.org/2000/svg">
<path d="M558 211V68C558 56.9543 566.954 48 578 48H824" stroke="#D8D8D8" stroke-width="4"/>
<circle cx="750" cy="47" r="8" fill="white" stroke="#D8D8D8" stroke-width="4"/>
<path d="M222 213V268C222 279.046 230.954 288 242 288H644C655.046 288 664 279.046 664 268V213" stroke="#D8D8D8" stroke-width="4"/>
<circle cx="343" cy="288" r="8" fill="white" stroke="#D8D8D8" stroke-width="4"/>
<circle cx="454" cy="288" r="8" fill="white" stroke="#D8D8D8" stroke-width="4"/>
<circle cx="558" cy="288" r="8" fill="white" stroke="#D8D8D8" stroke-width="4"/>
<path d="M343 209V147C343 135.954 351.954 127 363 127H813" stroke="#D8D8D8" stroke-width="4"/>
<circle cx="454" cy="126" r="8" fill="white" stroke="#D8D8D8" stroke-width="4"/>
<circle cx="558" cy="126" r="8" fill="white" stroke="#D8D8D8" stroke-width="4"/>
<circle cx="664" cy="126" r="8" fill="white" stroke="#D8D8D8" stroke-width="4"/>
<path d="M2.533 134.85H4.028L5.64 139.66C5.70933 139.842 5.757 140.011 5.783 140.167C5.81767 140.323 5.84367 140.462 5.861 140.583C5.87833 140.722 5.887 140.847 5.887 140.96H5.991C5.991 140.847 5.99967 140.722 6.017 140.583C6.03433 140.462 6.056 140.323 6.082 140.167C6.11667 140.011 6.16433 139.842 6.225 139.66L7.759 134.85H9.267L6.758 142H5.094L2.533 134.85ZM13.6949 142.13C13.2356 142.13 12.8196 142.065 12.4469 141.935C12.0829 141.796 11.7709 141.606 11.5109 141.363C11.2509 141.112 11.0473 140.813 10.8999 140.466C10.7613 140.119 10.6919 139.734 10.6919 139.309V137.528C10.6919 137.103 10.7613 136.718 10.8999 136.371C11.0473 136.024 11.2509 135.73 11.5109 135.487C11.7709 135.236 12.0829 135.045 12.4469 134.915C12.8196 134.776 13.2356 134.707 13.6949 134.707C14.1543 134.707 14.5659 134.772 14.9299 134.902C15.3026 135.032 15.6189 135.223 15.8789 135.474C16.1389 135.717 16.3383 136.011 16.4769 136.358C16.6243 136.696 16.6979 137.082 16.6979 137.515V139.309C16.6979 139.734 16.6286 140.124 16.4899 140.479C16.3513 140.826 16.1519 141.12 15.8919 141.363C15.6319 141.606 15.3156 141.796 14.9429 141.935C14.5703 142.065 14.1543 142.13 13.6949 142.13ZM12.1219 139.309C12.1219 139.794 12.2606 140.176 12.5379 140.453C12.8153 140.73 13.2009 140.869 13.6949 140.869C14.1803 140.869 14.5616 140.73 14.8389 140.453C15.1249 140.176 15.2679 139.794 15.2679 139.309V137.528C15.2679 137.043 15.1249 136.661 14.8389 136.384C14.5616 136.107 14.1803 135.968 13.6949 135.968C13.2096 135.968 12.8239 136.107 12.5379 136.384C12.2606 136.661 12.1219 137.043 12.1219 137.528V139.309ZM21.5808 142.13C21.1215 142.13 20.7055 142.065 20.3328 141.935C19.9688 141.805 19.6568 141.619 19.3968 141.376C19.1368 141.133 18.9375 140.839 18.7988 140.492C18.6602 140.145 18.5908 139.76 18.5908 139.335V137.515C18.5908 137.09 18.6602 136.705 18.7988 136.358C18.9375 136.011 19.1368 135.717 19.3968 135.474C19.6568 135.231 19.9688 135.045 20.3328 134.915C20.7055 134.785 21.1215 134.72 21.5808 134.72C21.9882 134.72 22.3608 134.776 22.6988 134.889C23.0455 135.002 23.3488 135.166 23.6088 135.383C23.8688 135.6 24.0812 135.86 24.2458 136.163C24.4192 136.466 24.5318 136.809 24.5838 137.19H23.1538C23.0932 136.826 22.9198 136.531 22.6338 136.306C22.3478 136.081 21.9968 135.968 21.5808 135.968C21.0868 135.968 20.7012 136.107 20.4238 136.384C20.1465 136.653 20.0078 137.03 20.0078 137.515V139.335C20.0078 139.82 20.1465 140.197 20.4238 140.466C20.7012 140.735 21.0868 140.869 21.5808 140.869C21.9968 140.869 22.3478 140.761 22.6338 140.544C22.9198 140.319 23.0932 140.024 23.1538 139.66H24.5838C24.4625 140.423 24.1332 141.025 23.5958 141.467C23.0672 141.909 22.3955 142.13 21.5808 142.13ZM26.1128 139.959C26.1128 139.266 26.3511 138.715 26.8278 138.308C27.3131 137.901 27.9674 137.697 28.7908 137.697H30.7278V137.099C30.7278 136.718 30.5934 136.423 30.3248 136.215C30.0648 135.998 29.6921 135.89 29.2068 135.89C28.8341 135.89 28.5178 135.959 28.2578 136.098C27.9978 136.228 27.8244 136.414 27.7378 136.657H26.3338C26.4464 136.059 26.7628 135.587 27.2828 135.24C27.8028 134.893 28.4484 134.72 29.2198 134.72C30.1298 134.72 30.8448 134.928 31.3648 135.344C31.8934 135.76 32.1578 136.332 32.1578 137.06V142H30.8318V140.609H30.7278C30.6324 141.077 30.3768 141.45 29.9608 141.727C29.5534 141.996 29.0464 142.13 28.4398 142.13C27.7291 142.13 27.1614 141.935 26.7368 141.545C26.3208 141.146 26.1128 140.618 26.1128 139.959ZM27.5428 139.842C27.5428 140.206 27.6598 140.488 27.8938 140.687C28.1278 140.886 28.4571 140.986 28.8818 140.986C29.1504 140.986 29.3974 140.951 29.6228 140.882C29.8481 140.813 30.0431 140.717 30.2078 140.596C30.3724 140.466 30.4981 140.319 30.5848 140.154C30.6801 139.981 30.7278 139.794 30.7278 139.595V138.698H28.8038C28.4138 138.698 28.1061 138.798 27.8808 138.997C27.6554 139.196 27.5428 139.478 27.5428 139.842ZM34.2197 132.64H35.6497V134.759C35.6497 134.88 35.6454 135.019 35.6367 135.175C35.6367 135.331 35.6324 135.478 35.6237 135.617C35.6064 135.773 35.5934 135.929 35.5847 136.085H35.6887C35.784 135.652 36.0007 135.318 36.3387 135.084C36.6854 134.841 37.1187 134.72 37.6387 134.72C38.0027 134.72 38.3364 134.785 38.6397 134.915C38.943 135.045 39.1987 135.231 39.4067 135.474C39.6234 135.717 39.788 136.011 39.9007 136.358C40.022 136.696 40.0827 137.082 40.0827 137.515V139.309C40.0827 139.742 40.022 140.137 39.9007 140.492C39.788 140.839 39.6234 141.133 39.4067 141.376C39.1987 141.619 38.943 141.805 38.6397 141.935C38.3364 142.065 38.0027 142.13 37.6387 142.13C37.1187 142.13 36.6854 142.013 36.3387 141.779C36.0007 141.536 35.784 141.198 35.6887 140.765H35.5847V142H34.2197V132.64ZM35.6497 139.309C35.6497 139.786 35.7797 140.167 36.0397 140.453C36.3084 140.739 36.668 140.882 37.1187 140.882C37.5954 140.882 37.968 140.739 38.2367 140.453C38.514 140.167 38.6527 139.781 38.6527 139.296V137.541C38.6527 137.047 38.514 136.661 38.2367 136.384C37.968 136.098 37.5954 135.955 37.1187 135.955C36.6767 135.955 36.3214 136.098 36.0527 136.384C35.784 136.67 35.6497 137.056 35.6497 137.541V139.309ZM43.4706 134.85V139.387C43.4706 140.384 43.9343 140.882 44.8616 140.882C45.8063 140.882 46.2786 140.384 46.2786 139.387V134.85H47.7086V139.387C47.7086 140.262 47.4616 140.938 46.9676 141.415C46.4736 141.892 45.7716 142.13 44.8616 142.13C43.9689 142.13 43.2756 141.892 42.7816 141.415C42.2876 140.93 42.0406 140.254 42.0406 139.387V134.85H43.4706ZM49.2245 133.849V132.549H52.9685V139.79C52.9685 140.076 53.0465 140.301 53.2025 140.466C53.3585 140.622 53.5752 140.7 53.8525 140.7H55.9845V142H53.7875C53.0855 142 52.5352 141.805 52.1365 141.415C51.7379 141.016 51.5385 140.475 51.5385 139.79V133.849H49.2245ZM57.2925 139.959C57.2925 139.266 57.5308 138.715 58.0075 138.308C58.4928 137.901 59.1471 137.697 59.9705 137.697H61.9075V137.099C61.9075 136.718 61.7731 136.423 61.5045 136.215C61.2445 135.998 60.8718 135.89 60.3865 135.89C60.0138 135.89 59.6975 135.959 59.4375 136.098C59.1775 136.228 59.0041 136.414 58.9175 136.657H57.5135C57.6261 136.059 57.9425 135.587 58.4625 135.24C58.9825 134.893 59.6281 134.72 60.3995 134.72C61.3095 134.72 62.0245 134.928 62.5445 135.344C63.0731 135.76 63.3375 136.332 63.3375 137.06V142H62.0115V140.609H61.9075C61.8121 141.077 61.5565 141.45 61.1405 141.727C60.7331 141.996 60.2261 142.13 59.6195 142.13C58.9088 142.13 58.3411 141.935 57.9165 141.545C57.5005 141.146 57.2925 140.618 57.2925 139.959ZM58.7225 139.842C58.7225 140.206 58.8395 140.488 59.0735 140.687C59.3075 140.886 59.6368 140.986 60.0615 140.986C60.3301 140.986 60.5771 140.951 60.8025 140.882C61.0278 140.813 61.2228 140.717 61.3875 140.596C61.5521 140.466 61.6778 140.319 61.7645 140.154C61.8598 139.981 61.9075 139.794 61.9075 139.595V138.698H59.9835C59.5935 138.698 59.2858 138.798 59.0605 138.997C58.8351 139.196 58.7225 139.478 58.7225 139.842ZM67.0374 134.85V136.085H67.1544C67.2497 135.652 67.4707 135.318 67.8174 135.084C68.1727 134.841 68.6147 134.72 69.1434 134.72C69.906 134.72 70.504 134.958 70.9374 135.435C71.3707 135.903 71.5874 136.557 71.5874 137.398V137.866H70.1184V137.541C70.1184 137.038 69.984 136.648 69.7154 136.371C69.4467 136.085 69.0784 135.942 68.6104 135.942C68.151 135.942 67.787 136.085 67.5184 136.371C67.2497 136.657 67.1154 137.047 67.1154 137.541V142H65.6854V134.85H67.0374ZM72.7003 134.85H74.2603L75.7683 138.789C75.8376 138.962 75.8896 139.136 75.9243 139.309C75.9676 139.474 76.0023 139.63 76.0283 139.777C76.0543 139.942 76.076 140.098 76.0933 140.245H76.1973C76.206 140.098 76.2233 139.942 76.2493 139.777C76.2753 139.638 76.3056 139.482 76.3403 139.309C76.3836 139.136 76.4356 138.962 76.4963 138.789L77.9003 134.85H79.4083L75.9763 144.21H74.4683L75.4563 141.545L72.7003 134.85Z" fill="#787878"/>
<path d="M5.848 158.13C5.42333 158.13 5.029 158.074 4.665 157.961C4.301 157.84 3.98467 157.671 3.716 157.454C3.456 157.229 3.24367 156.96 3.079 156.648C2.91433 156.336 2.81467 155.985 2.78 155.595H4.21C4.27933 155.985 4.46133 156.301 4.756 156.544C5.05067 156.778 5.41467 156.895 5.848 156.895C6.35067 156.895 6.75367 156.743 7.057 156.44C7.36033 156.137 7.512 155.734 7.512 155.231C7.512 154.728 7.356 154.325 7.044 154.022C6.732 153.71 6.316 153.554 5.796 153.554H4.678V152.15L6.329 150.525C6.42433 150.43 6.524 150.343 6.628 150.265C6.732 150.187 6.83167 150.113 6.927 150.044C7.031 149.975 7.135 149.905 7.239 149.836V149.784C7.135 149.801 7.02233 149.814 6.901 149.823C6.797 149.84 6.67567 149.853 6.537 149.862C6.407 149.871 6.26833 149.875 6.121 149.875H3.131V148.64H8.526V150.083L6.498 151.942C6.42867 151.994 6.36367 152.046 6.303 152.098C6.24233 152.141 6.186 152.185 6.134 152.228C6.07333 152.271 6.017 152.31 5.965 152.345C6.42433 152.354 6.836 152.432 7.2 152.579C7.564 152.718 7.876 152.913 8.136 153.164C8.396 153.415 8.59533 153.714 8.734 154.061C8.87267 154.408 8.942 154.798 8.942 155.231C8.942 155.673 8.86833 156.072 8.721 156.427C8.57367 156.782 8.36567 157.09 8.097 157.35C7.82833 157.601 7.50333 157.796 7.122 157.935C6.74067 158.065 6.316 158.13 5.848 158.13ZM12.1349 155.946C12.2216 156.232 12.3993 156.462 12.6679 156.635C12.9453 156.808 13.2919 156.895 13.7079 156.895C14.2019 156.895 14.5919 156.756 14.8779 156.479C15.1726 156.193 15.3199 155.812 15.3199 155.335V154.75C15.3199 154.273 15.1726 153.896 14.8779 153.619C14.5833 153.333 14.1889 153.19 13.6949 153.19C13.0623 153.19 12.6073 153.394 12.3299 153.801H10.8999L10.9649 148.64H16.3729V149.914H12.3299L12.2909 152.982H12.3559C12.4339 152.8 12.5509 152.635 12.7069 152.488C12.8456 152.367 13.0319 152.258 13.2659 152.163C13.4999 152.059 13.8033 152.007 14.1759 152.007C14.5746 152.007 14.9343 152.072 15.2549 152.202C15.5756 152.332 15.8486 152.518 16.0739 152.761C16.2993 152.995 16.4726 153.281 16.5939 153.619C16.7153 153.957 16.7759 154.334 16.7759 154.75V155.335C16.7759 155.76 16.7023 156.145 16.5549 156.492C16.4076 156.839 16.1996 157.133 15.9309 157.376C15.6709 157.619 15.3503 157.805 14.9689 157.935C14.5876 158.065 14.1629 158.13 13.6949 158.13C13.2789 158.13 12.8976 158.078 12.5509 157.974C12.2043 157.87 11.8966 157.723 11.6279 157.532C11.3679 157.341 11.1556 157.112 10.9909 156.843C10.8263 156.574 10.7179 156.275 10.6659 155.946H12.1349ZM29.3758 158.13C28.9164 158.13 28.5004 158.065 28.1278 157.935C27.7638 157.805 27.4518 157.619 27.1918 157.376C26.9318 157.133 26.7324 156.839 26.5938 156.492C26.4551 156.145 26.3858 155.76 26.3858 155.335V153.515C26.3858 153.09 26.4551 152.705 26.5938 152.358C26.7324 152.011 26.9318 151.717 27.1918 151.474C27.4518 151.231 27.7638 151.045 28.1278 150.915C28.5004 150.785 28.9164 150.72 29.3758 150.72C29.7831 150.72 30.1558 150.776 30.4938 150.889C30.8404 151.002 31.1438 151.166 31.4038 151.383C31.6638 151.6 31.8761 151.86 32.0408 152.163C32.2141 152.466 32.3268 152.809 32.3788 153.19H30.9488C30.8881 152.826 30.7148 152.531 30.4288 152.306C30.1428 152.081 29.7918 151.968 29.3758 151.968C28.8818 151.968 28.4961 152.107 28.2188 152.384C27.9414 152.653 27.8028 153.03 27.8028 153.515V155.335C27.8028 155.82 27.9414 156.197 28.2188 156.466C28.4961 156.735 28.8818 156.869 29.3758 156.869C29.7918 156.869 30.1428 156.761 30.4288 156.544C30.7148 156.319 30.8881 156.024 30.9488 155.66H32.3788C32.2574 156.423 31.9281 157.025 31.3908 157.467C30.8621 157.909 30.1904 158.13 29.3758 158.13ZM37.0797 158.13C36.6204 158.13 36.2044 158.065 35.8317 157.935C35.4677 157.796 35.1557 157.606 34.8957 157.363C34.6357 157.112 34.432 156.813 34.2847 156.466C34.146 156.119 34.0767 155.734 34.0767 155.309V153.528C34.0767 153.103 34.146 152.718 34.2847 152.371C34.432 152.024 34.6357 151.73 34.8957 151.487C35.1557 151.236 35.4677 151.045 35.8317 150.915C36.2044 150.776 36.6204 150.707 37.0797 150.707C37.539 150.707 37.9507 150.772 38.3147 150.902C38.6874 151.032 39.0037 151.223 39.2637 151.474C39.5237 151.717 39.723 152.011 39.8617 152.358C40.009 152.696 40.0827 153.082 40.0827 153.515V155.309C40.0827 155.734 40.0134 156.124 39.8747 156.479C39.736 156.826 39.5367 157.12 39.2767 157.363C39.0167 157.606 38.7004 157.796 38.3277 157.935C37.955 158.065 37.539 158.13 37.0797 158.13ZM35.5067 155.309C35.5067 155.794 35.6454 156.176 35.9227 156.453C36.2 156.73 36.5857 156.869 37.0797 156.869C37.565 156.869 37.9464 156.73 38.2237 156.453C38.5097 156.176 38.6527 155.794 38.6527 155.309V153.528C38.6527 153.043 38.5097 152.661 38.2237 152.384C37.9464 152.107 37.565 151.968 37.0797 151.968C36.5944 151.968 36.2087 152.107 35.9227 152.384C35.6454 152.661 35.5067 153.043 35.5067 153.528V155.309ZM42.0016 150.85H43.3536V152.085H43.4706C43.5659 151.643 43.7783 151.305 44.1076 151.071C44.4369 150.837 44.8616 150.72 45.3816 150.72C45.7543 150.72 46.0836 150.785 46.3696 150.915C46.6643 151.036 46.9113 151.21 47.1106 151.435C47.3186 151.66 47.4746 151.933 47.5786 152.254C47.6826 152.566 47.7346 152.913 47.7346 153.294V158H46.3046V153.489C46.3046 152.995 46.1789 152.614 45.9276 152.345C45.6763 152.076 45.3296 151.942 44.8876 151.942C44.4369 151.942 44.0816 152.085 43.8216 152.371C43.5616 152.657 43.4316 153.047 43.4316 153.541V158H42.0016V150.85ZM49.4455 150.85H51.4605V148.64H52.8905V150.85H55.6335V152.137H52.8905V155.946C52.8905 156.18 52.9599 156.366 53.0985 156.505C53.2372 156.635 53.4322 156.7 53.6835 156.7H55.5035V158H53.6185C52.9512 158 52.4225 157.814 52.0325 157.441C51.6512 157.068 51.4605 156.57 51.4605 155.946V152.137H49.4455V150.85ZM59.2425 150.85V152.085H59.3595C59.4548 151.652 59.6758 151.318 60.0225 151.084C60.3778 150.841 60.8198 150.72 61.3485 150.72C62.1111 150.72 62.7091 150.958 63.1425 151.435C63.5758 151.903 63.7925 152.557 63.7925 153.398V153.866H62.3235V153.541C62.3235 153.038 62.1891 152.648 61.9205 152.371C61.6518 152.085 61.2835 151.942 60.8155 151.942C60.3561 151.942 59.9921 152.085 59.7235 152.371C59.4548 152.657 59.3205 153.047 59.3205 153.541V158H57.8905V150.85H59.2425ZM65.5164 156.7H68.0904V152.137H65.8414V150.85H69.4814V156.7H71.5744V158H65.5164V156.7ZM67.5704 148.887C67.5704 148.636 67.6484 148.436 67.8044 148.289C67.969 148.133 68.1857 148.055 68.4544 148.055H68.7664C69.035 148.055 69.2474 148.133 69.4034 148.289C69.568 148.436 69.6504 148.636 69.6504 148.887C69.6504 149.138 69.568 149.338 69.4034 149.485C69.2474 149.632 69.0307 149.706 68.7534 149.706H68.4544C68.1857 149.706 67.969 149.632 67.8044 149.485C67.6484 149.338 67.5704 149.138 67.5704 148.887ZM73.1943 148.64H74.6243V150.759C74.6243 150.88 74.62 151.019 74.6113 151.175C74.6113 151.331 74.607 151.478 74.5983 151.617C74.581 151.773 74.568 151.929 74.5593 152.085H74.6633C74.7586 151.652 74.9753 151.318 75.3133 151.084C75.66 150.841 76.0933 150.72 76.6133 150.72C76.9773 150.72 77.311 150.785 77.6143 150.915C77.9176 151.045 78.1733 151.231 78.3813 151.474C78.598 151.717 78.7626 152.011 78.8753 152.358C78.9966 152.696 79.0573 153.082 79.0573 153.515V155.309C79.0573 155.742 78.9966 156.137 78.8753 156.492C78.7626 156.839 78.598 157.133 78.3813 157.376C78.1733 157.619 77.9176 157.805 77.6143 157.935C77.311 158.065 76.9773 158.13 76.6133 158.13C76.0933 158.13 75.66 158.013 75.3133 157.779C74.9753 157.536 74.7586 157.198 74.6633 156.765H74.5593V158H73.1943V148.64ZM74.6243 155.309C74.6243 155.786 74.7543 156.167 75.0143 156.453C75.283 156.739 75.6426 156.882 76.0933 156.882C76.57 156.882 76.9426 156.739 77.2113 156.453C77.4886 156.167 77.6273 155.781 77.6273 155.296V153.541C77.6273 153.047 77.4886 152.661 77.2113 152.384C76.9426 152.098 76.57 151.955 76.0933 151.955C75.6513 151.955 75.296 152.098 75.0273 152.384C74.7586 152.67 74.6243 153.056 74.6243 153.541V155.309ZM82.4452 150.85V155.387C82.4452 156.384 82.9089 156.882 83.8362 156.882C84.7809 156.882 85.2532 156.384 85.2532 155.387V150.85H86.6832V155.387C86.6832 156.262 86.4362 156.938 85.9422 157.415C85.4482 157.892 84.7462 158.13 83.8362 158.13C82.9436 158.13 82.2502 157.892 81.7562 157.415C81.2622 156.93 81.0152 156.254 81.0152 155.387V150.85H82.4452ZM88.4201 150.85H90.4351V148.64H91.8651V150.85H94.6081V152.137H91.8651V155.946C91.8651 156.18 91.9345 156.366 92.0731 156.505C92.2118 156.635 92.4068 156.7 92.6581 156.7H94.4781V158H92.5931C91.9258 158 91.3971 157.814 91.0071 157.441C90.6258 157.068 90.4351 156.57 90.4351 155.946V152.137H88.4201V150.85ZM99.4391 158.13C98.9797 158.13 98.5637 158.065 98.1911 157.935C97.8271 157.796 97.5151 157.606 97.2551 157.363C96.9951 157.112 96.7914 156.813 96.6441 156.466C96.5054 156.119 96.4361 155.734 96.4361 155.309V153.528C96.4361 153.103 96.5054 152.718 96.6441 152.371C96.7914 152.024 96.9951 151.73 97.2551 151.487C97.5151 151.236 97.8271 151.045 98.1911 150.915C98.5637 150.776 98.9797 150.707 99.4391 150.707C99.8984 150.707 100.31 150.772 100.674 150.902C101.047 151.032 101.363 151.223 101.623 151.474C101.883 151.717 102.082 152.011 102.221 152.358C102.368 152.696 102.442 153.082 102.442 153.515V155.309C102.442 155.734 102.373 156.124 102.234 156.479C102.095 156.826 101.896 157.12 101.636 157.363C101.376 157.606 101.06 157.796 100.687 157.935C100.314 158.065 99.8984 158.13 99.4391 158.13ZM97.8661 155.309C97.8661 155.794 98.0047 156.176 98.2821 156.453C98.5594 156.73 98.9451 156.869 99.4391 156.869C99.9244 156.869 100.306 156.73 100.583 156.453C100.869 156.176 101.012 155.794 101.012 155.309V153.528C101.012 153.043 100.869 152.661 100.583 152.384C100.306 152.107 99.9244 151.968 99.4391 151.968C98.9537 151.968 98.5681 152.107 98.2821 152.384C98.0047 152.661 97.8661 153.043 97.8661 153.528V155.309ZM106.012 150.85V152.085H106.129C106.224 151.652 106.445 151.318 106.792 151.084C107.147 150.841 107.589 150.72 108.118 150.72C108.881 150.72 109.479 150.958 109.912 151.435C110.345 151.903 110.562 152.557 110.562 153.398V153.866H109.093V153.541C109.093 153.038 108.959 152.648 108.69 152.371C108.421 152.085 108.053 151.942 107.585 151.942C107.126 151.942 106.762 152.085 106.493 152.371C106.224 152.657 106.09 153.047 106.09 153.541V158H104.66V150.85H106.012ZM111.987 156.206H113.469C113.521 156.44 113.664 156.626 113.898 156.765C114.141 156.904 114.435 156.973 114.782 156.973H115.25C115.675 156.973 116.004 156.886 116.238 156.713C116.481 156.54 116.602 156.301 116.602 155.998C116.602 155.478 116.221 155.166 115.458 155.062L114.418 154.919C113.647 154.815 113.075 154.594 112.702 154.256C112.338 153.909 112.156 153.424 112.156 152.8C112.156 152.141 112.386 151.63 112.845 151.266C113.313 150.902 113.976 150.72 114.834 150.72H115.289C116.043 150.72 116.654 150.889 117.122 151.227C117.599 151.556 117.88 152.007 117.967 152.579H116.498C116.446 152.362 116.312 152.193 116.095 152.072C115.878 151.942 115.61 151.877 115.289 151.877H114.834C114.427 151.877 114.115 151.955 113.898 152.111C113.681 152.258 113.573 152.484 113.573 152.787C113.573 153.038 113.651 153.233 113.807 153.372C113.972 153.511 114.232 153.602 114.587 153.645L115.653 153.788C116.468 153.901 117.066 154.13 117.447 154.477C117.828 154.824 118.019 155.318 118.019 155.959C118.019 156.652 117.781 157.19 117.304 157.571C116.827 157.944 116.143 158.13 115.25 158.13H114.782C113.985 158.13 113.335 157.961 112.832 157.623C112.338 157.276 112.056 156.804 111.987 156.206ZM3.079 172.739H5.588V166.733C5.588 166.508 5.59233 166.308 5.601 166.135C5.61833 165.953 5.627 165.858 5.627 165.849H5.601C5.549 165.901 5.49267 165.953 5.432 166.005C5.38 166.048 5.32367 166.096 5.263 166.148C5.20233 166.191 5.13733 166.235 5.068 166.278L3.235 167.5V166.096L5.315 164.64H7.018V172.739H9.085V174H3.079V172.739ZM14.7739 172.037L13.0839 176.08H11.8359L12.8759 172.037H14.7739ZM18.4868 167.331C18.4868 166.898 18.5562 166.508 18.6948 166.161C18.8422 165.814 19.0458 165.52 19.3058 165.277C19.5658 165.026 19.8822 164.835 20.2548 164.705C20.6275 164.566 21.0435 164.497 21.5028 164.497C21.9535 164.497 22.3608 164.566 22.7248 164.705C23.0975 164.835 23.4138 165.026 23.6738 165.277C23.9338 165.52 24.1332 165.814 24.2718 166.161C24.4105 166.508 24.4798 166.898 24.4798 167.331V171.283C24.4798 171.708 24.4062 172.098 24.2588 172.453C24.1202 172.8 23.9208 173.099 23.6608 173.35C23.4008 173.601 23.0888 173.796 22.7248 173.935C22.3608 174.065 21.9535 174.13 21.5028 174.13C21.0435 174.13 20.6275 174.065 20.2548 173.935C19.8822 173.796 19.5658 173.606 19.3058 173.363C19.0458 173.112 18.8422 172.813 18.6948 172.466C18.5562 172.111 18.4868 171.716 18.4868 171.283V167.331ZM19.8908 171.283C19.8908 171.768 20.0338 172.154 20.3198 172.44C20.6145 172.726 21.0088 172.869 21.5028 172.869C21.9795 172.869 22.3608 172.726 22.6468 172.44C22.9328 172.154 23.0758 171.768 23.0758 171.283V167.331C23.0758 166.854 22.9328 166.473 22.6468 166.187C22.3608 165.901 21.9795 165.758 21.5028 165.758C21.0088 165.758 20.6145 165.901 20.3198 166.187C20.0338 166.473 19.8908 166.854 19.8908 167.331V171.283ZM20.8658 168.384C20.8658 168.176 20.9222 168.007 21.0348 167.877C21.1475 167.747 21.3035 167.682 21.5028 167.682C21.6935 167.682 21.8452 167.747 21.9578 167.877C22.0705 168.007 22.1268 168.176 22.1268 168.384V170.373C22.1268 170.581 22.0705 170.75 21.9578 170.88C21.8452 171.01 21.6935 171.075 21.5028 171.075C21.3035 171.075 21.1475 171.01 21.0348 170.88C20.9222 170.75 20.8658 170.581 20.8658 170.373V168.384ZM29.2718 164.51C29.7398 164.51 30.1644 164.584 30.5458 164.731C30.9358 164.87 31.2651 165.069 31.5338 165.329C31.8111 165.589 32.0234 165.905 32.1708 166.278C32.3268 166.642 32.4048 167.045 32.4048 167.487C32.4048 168.059 32.2791 168.64 32.0278 169.229C31.7851 169.818 31.4428 170.473 31.0008 171.192L29.2588 174H27.5948L29.6228 170.88C29.8221 170.577 29.9824 170.334 30.1038 170.152C30.2251 169.97 30.3204 169.831 30.3898 169.736C30.4678 169.623 30.5241 169.55 30.5588 169.515H30.4028C30.3161 169.671 30.1991 169.81 30.0518 169.931C29.9218 170.035 29.7528 170.13 29.5448 170.217C29.3454 170.304 29.0941 170.347 28.7908 170.347C28.4008 170.347 28.0454 170.278 27.7248 170.139C27.4041 170 27.1268 169.81 26.8928 169.567C26.6674 169.316 26.4898 169.012 26.3598 168.657C26.2298 168.302 26.1648 167.912 26.1648 167.487C26.1648 167.045 26.2384 166.642 26.3858 166.278C26.5418 165.914 26.7541 165.602 27.0228 165.342C27.3001 165.073 27.6294 164.87 28.0108 164.731C28.3921 164.584 28.8124 164.51 29.2718 164.51ZM27.5948 167.474C27.5948 168.003 27.7508 168.427 28.0628 168.748C28.3748 169.06 28.7778 169.216 29.2718 169.216C29.7744 169.216 30.1818 169.056 30.4938 168.735C30.8144 168.414 30.9748 167.994 30.9748 167.474C30.9748 166.954 30.8188 166.538 30.5068 166.226C30.1948 165.905 29.7831 165.745 29.2718 165.745C28.7778 165.745 28.3748 165.905 28.0628 166.226C27.7508 166.538 27.5948 166.954 27.5948 167.474ZM34.2587 172.739H36.7677V166.733C36.7677 166.508 36.772 166.308 36.7807 166.135C36.798 165.953 36.8067 165.858 36.8067 165.849H36.7807C36.7287 165.901 36.6724 165.953 36.6117 166.005C36.5597 166.048 36.5034 166.096 36.4427 166.148C36.382 166.191 36.317 166.235 36.2477 166.278L34.4147 167.5V166.096L36.4947 164.64H38.1977V172.739H40.2647V174H34.2587V172.739ZM52.7605 174.13C52.3012 174.13 51.8852 174.065 51.5125 173.935C51.1485 173.805 50.8365 173.619 50.5765 173.376C50.3165 173.133 50.1172 172.839 49.9785 172.492C49.8399 172.145 49.7705 171.76 49.7705 171.335V169.515C49.7705 169.09 49.8399 168.705 49.9785 168.358C50.1172 168.011 50.3165 167.717 50.5765 167.474C50.8365 167.231 51.1485 167.045 51.5125 166.915C51.8852 166.785 52.3012 166.72 52.7605 166.72C53.1679 166.72 53.5405 166.776 53.8785 166.889C54.2252 167.002 54.5285 167.166 54.7885 167.383C55.0485 167.6 55.2609 167.86 55.4255 168.163C55.5989 168.466 55.7115 168.809 55.7635 169.19H54.3335C54.2729 168.826 54.0995 168.531 53.8135 168.306C53.5275 168.081 53.1765 167.968 52.7605 167.968C52.2665 167.968 51.8809 168.107 51.6035 168.384C51.3262 168.653 51.1875 169.03 51.1875 169.515V171.335C51.1875 171.82 51.3262 172.197 51.6035 172.466C51.8809 172.735 52.2665 172.869 52.7605 172.869C53.1765 172.869 53.5275 172.761 53.8135 172.544C54.0995 172.319 54.2729 172.024 54.3335 171.66H55.7635C55.6422 172.423 55.3129 173.025 54.7755 173.467C54.2469 173.909 53.5752 174.13 52.7605 174.13ZM60.4645 174.13C60.0051 174.13 59.5891 174.065 59.2165 173.935C58.8525 173.796 58.5405 173.606 58.2805 173.363C58.0205 173.112 57.8168 172.813 57.6695 172.466C57.5308 172.119 57.4615 171.734 57.4615 171.309V169.528C57.4615 169.103 57.5308 168.718 57.6695 168.371C57.8168 168.024 58.0205 167.73 58.2805 167.487C58.5405 167.236 58.8525 167.045 59.2165 166.915C59.5891 166.776 60.0051 166.707 60.4645 166.707C60.9238 166.707 61.3355 166.772 61.6995 166.902C62.0721 167.032 62.3885 167.223 62.6485 167.474C62.9085 167.717 63.1078 168.011 63.2465 168.358C63.3938 168.696 63.4675 169.082 63.4675 169.515V171.309C63.4675 171.734 63.3981 172.124 63.2595 172.479C63.1208 172.826 62.9215 173.12 62.6615 173.363C62.4015 173.606 62.0851 173.796 61.7125 173.935C61.3398 174.065 60.9238 174.13 60.4645 174.13ZM58.8915 171.309C58.8915 171.794 59.0301 172.176 59.3075 172.453C59.5848 172.73 59.9705 172.869 60.4645 172.869C60.9498 172.869 61.3311 172.73 61.6085 172.453C61.8945 172.176 62.0375 171.794 62.0375 171.309V169.528C62.0375 169.043 61.8945 168.661 61.6085 168.384C61.3311 168.107 60.9498 167.968 60.4645 167.968C59.9791 167.968 59.5935 168.107 59.3075 168.384C59.0301 168.661 58.8915 169.043 58.8915 169.528V171.309ZM65.0744 174V166.85H66.2574V167.903H66.3614C66.3874 167.53 66.5 167.24 66.6994 167.032C66.9074 166.824 67.1847 166.72 67.5314 166.72C67.8607 166.72 68.1207 166.82 68.3114 167.019C68.502 167.218 68.6407 167.513 68.7274 167.903H68.8184C68.8444 167.53 68.9614 167.24 69.1694 167.032C69.3774 166.824 69.659 166.72 70.0144 166.72C70.4477 166.72 70.7944 166.885 71.0544 167.214C71.323 167.535 71.4574 167.981 71.4574 168.553V174H70.1444V168.618C70.1444 168.341 70.088 168.128 69.9754 167.981C69.8627 167.834 69.698 167.76 69.4814 167.76C69.022 167.76 68.7924 168.063 68.7924 168.67V174H67.7394V168.618C67.7394 168.341 67.6787 168.128 67.5574 167.981C67.436 167.834 67.2627 167.76 67.0374 167.76C66.5867 167.76 66.3614 168.063 66.3614 168.67V174H65.0744ZM72.8693 174V166.85H74.0523V167.903H74.1563C74.1823 167.53 74.295 167.24 74.4943 167.032C74.7023 166.824 74.9796 166.72 75.3263 166.72C75.6556 166.72 75.9156 166.82 76.1063 167.019C76.297 167.218 76.4356 167.513 76.5223 167.903H76.6133C76.6393 167.53 76.7563 167.24 76.9643 167.032C77.1723 166.824 77.454 166.72 77.8093 166.72C78.2426 166.72 78.5893 166.885 78.8493 167.214C79.118 167.535 79.2523 167.981 79.2523 168.553V174H77.9393V168.618C77.9393 168.341 77.883 168.128 77.7703 167.981C77.6576 167.834 77.493 167.76 77.2763 167.76C76.817 167.76 76.5873 168.063 76.5873 168.67V174H75.5343V168.618C75.5343 168.341 75.4736 168.128 75.3523 167.981C75.231 167.834 75.0576 167.76 74.8323 167.76C74.3816 167.76 74.1563 168.063 74.1563 168.67V174H72.8693ZM81.1062 172.7H83.6802V168.137H81.4312V166.85H85.0712V172.7H87.1642V174H81.1062V172.7ZM83.1602 164.887C83.1602 164.636 83.2382 164.436 83.3942 164.289C83.5589 164.133 83.7756 164.055 84.0442 164.055H84.3562C84.6249 164.055 84.8372 164.133 84.9932 164.289C85.1579 164.436 85.2402 164.636 85.2402 164.887C85.2402 165.138 85.1579 165.338 84.9932 165.485C84.8372 165.632 84.6206 165.706 84.3432 165.706H84.0442C83.7756 165.706 83.5589 165.632 83.3942 165.485C83.2382 165.338 83.1602 165.138 83.1602 164.887ZM88.4201 166.85H90.4351V164.64H91.8651V166.85H94.6081V168.137H91.8651V171.946C91.8651 172.18 91.9345 172.366 92.0731 172.505C92.2118 172.635 92.4068 172.7 92.6581 172.7H94.4781V174H92.5931C91.9258 174 91.3971 173.814 91.0071 173.441C90.6258 173.068 90.4351 172.57 90.4351 171.946V168.137H88.4201V166.85ZM96.3971 172.206H97.8791C97.9311 172.44 98.0741 172.626 98.3081 172.765C98.5507 172.904 98.8454 172.973 99.1921 172.973H99.6601C100.085 172.973 100.414 172.886 100.648 172.713C100.891 172.54 101.012 172.301 101.012 171.998C101.012 171.478 100.631 171.166 99.8681 171.062L98.8281 170.919C98.0567 170.815 97.4847 170.594 97.1121 170.256C96.7481 169.909 96.5661 169.424 96.5661 168.8C96.5661 168.141 96.7957 167.63 97.2551 167.266C97.7231 166.902 98.3861 166.72 99.2441 166.72H99.6991C100.453 166.72 101.064 166.889 101.532 167.227C102.009 167.556 102.29 168.007 102.377 168.579H100.908C100.856 168.362 100.722 168.193 100.505 168.072C100.288 167.942 100.02 167.877 99.6991 167.877H99.2441C98.8367 167.877 98.5247 167.955 98.3081 168.111C98.0914 168.258 97.9831 168.484 97.9831 168.787C97.9831 169.038 98.0611 169.233 98.2171 169.372C98.3817 169.511 98.6417 169.602 98.9971 169.645L100.063 169.788C100.878 169.901 101.476 170.13 101.857 170.477C102.238 170.824 102.429 171.318 102.429 171.959C102.429 172.652 102.191 173.19 101.714 173.571C101.237 173.944 100.553 174.13 99.6601 174.13H99.1921C98.3947 174.13 97.7447 173.961 97.2421 173.623C96.7481 173.276 96.4664 172.804 96.3971 172.206Z" fill="#B0B0B0"/>
<path d="M2 373V231C2 219.954 10.9543 211 22 211H796" stroke="#B0B0B0" stroke-width="4"/>
<circle cx="92" cy="210" r="8" fill="white" stroke="#D8D8D8" stroke-width="4"/>
<circle cx="343" cy="210" r="8" fill="white" stroke="#D8D8D8" stroke-width="4"/>
<circle cx="222" cy="210" r="8" fill="white" stroke="#D8D8D8" stroke-width="4"/>
<circle cx="558" cy="210" r="8" fill="white" stroke="#D8D8D8" stroke-width="4"/>
<circle cx="664" cy="210" r="8" fill="white" stroke="#D8D8D8" stroke-width="4"/>
<rect x="222" y="308" width="134" height="27" rx="13.5" fill="black"/>
<path d="M239.04 316.64H240.47V318.759C240.47 318.88 240.466 319.019 240.457 319.175C240.457 319.331 240.453 319.478 240.444 319.617C240.427 319.773 240.414 319.929 240.405 320.085H240.509C240.604 319.652 240.821 319.318 241.159 319.084C241.506 318.841 241.939 318.72 242.459 318.72C242.823 318.72 243.157 318.785 243.46 318.915C243.763 319.045 244.019 319.231 244.227 319.474C244.444 319.717 244.608 320.011 244.721 320.358C244.842 320.696 244.903 321.082 244.903 321.515V323.309C244.903 323.742 244.842 324.137 244.721 324.492C244.608 324.839 244.444 325.133 244.227 325.376C244.019 325.619 243.763 325.805 243.46 325.935C243.157 326.065 242.823 326.13 242.459 326.13C241.939 326.13 241.506 326.013 241.159 325.779C240.821 325.536 240.604 325.198 240.509 324.765H240.405V326H239.04V316.64ZM240.47 323.309C240.47 323.786 240.6 324.167 240.86 324.453C241.129 324.739 241.488 324.882 241.939 324.882C242.416 324.882 242.788 324.739 243.057 324.453C243.334 324.167 243.473 323.781 243.473 323.296V321.541C243.473 321.047 243.334 320.661 243.057 320.384C242.788 320.098 242.416 319.955 241.939 319.955C241.497 319.955 241.142 320.098 240.873 320.384C240.604 320.67 240.47 321.056 240.47 321.541V323.309ZM248.291 318.85V323.387C248.291 324.384 248.755 324.882 249.682 324.882C250.627 324.882 251.099 324.384 251.099 323.387V318.85H252.529V323.387C252.529 324.262 252.282 324.938 251.788 325.415C251.294 325.892 250.592 326.13 249.682 326.13C248.789 326.13 248.096 325.892 247.602 325.415C247.108 324.93 246.861 324.254 246.861 323.387V318.85H248.291ZM254.266 318.85H256.281V316.64H257.711V318.85H260.454V320.137H257.711V323.946C257.711 324.18 257.78 324.366 257.919 324.505C258.058 324.635 258.253 324.7 258.504 324.7H260.324V326H258.439C257.772 326 257.243 325.814 256.853 325.441C256.472 325.068 256.281 324.57 256.281 323.946V320.137H254.266V318.85ZM262.061 318.85H264.076V316.64H265.506V318.85H268.249V320.137H265.506V323.946C265.506 324.18 265.575 324.366 265.714 324.505C265.852 324.635 266.047 324.7 266.299 324.7H268.119V326H266.234C265.566 326 265.038 325.814 264.648 325.441C264.266 325.068 264.076 324.57 264.076 323.946V320.137H262.061V318.85ZM273.08 326.13C272.62 326.13 272.204 326.065 271.832 325.935C271.468 325.796 271.156 325.606 270.896 325.363C270.636 325.112 270.432 324.813 270.285 324.466C270.146 324.119 270.077 323.734 270.077 323.309V321.528C270.077 321.103 270.146 320.718 270.285 320.371C270.432 320.024 270.636 319.73 270.896 319.487C271.156 319.236 271.468 319.045 271.832 318.915C272.204 318.776 272.62 318.707 273.08 318.707C273.539 318.707 273.951 318.772 274.315 318.902C274.687 319.032 275.004 319.223 275.264 319.474C275.524 319.717 275.723 320.011 275.862 320.358C276.009 320.696 276.083 321.082 276.083 321.515V323.309C276.083 323.734 276.013 324.124 275.875 324.479C275.736 324.826 275.537 325.12 275.277 325.363C275.017 325.606 274.7 325.796 274.328 325.935C273.955 326.065 273.539 326.13 273.08 326.13ZM271.507 323.309C271.507 323.794 271.645 324.176 271.923 324.453C272.2 324.73 272.586 324.869 273.08 324.869C273.565 324.869 273.946 324.73 274.224 324.453C274.51 324.176 274.653 323.794 274.653 323.309V321.528C274.653 321.043 274.51 320.661 274.224 320.384C273.946 320.107 273.565 319.968 273.08 319.968C272.594 319.968 272.209 320.107 271.923 320.384C271.645 320.661 271.507 321.043 271.507 321.528V323.309ZM278.002 318.85H279.354V320.085H279.471C279.566 319.643 279.778 319.305 280.108 319.071C280.437 318.837 280.862 318.72 281.382 318.72C281.754 318.72 282.084 318.785 282.37 318.915C282.664 319.036 282.911 319.21 283.111 319.435C283.319 319.66 283.475 319.933 283.579 320.254C283.683 320.566 283.735 320.913 283.735 321.294V326H282.305V321.489C282.305 320.995 282.179 320.614 281.928 320.345C281.676 320.076 281.33 319.942 280.888 319.942C280.437 319.942 280.082 320.085 279.822 320.371C279.562 320.657 279.432 321.047 279.432 321.541V326H278.002V318.85ZM285.55 326.325H291.79V327.586H285.55V326.325ZM293.721 324.7H296.295V320.137H294.046V318.85H297.686V324.7H299.779V326H293.721V324.7ZM295.775 316.887C295.775 316.636 295.853 316.436 296.009 316.289C296.174 316.133 296.391 316.055 296.659 316.055H296.971C297.24 316.055 297.452 316.133 297.608 316.289C297.773 316.436 297.855 316.636 297.855 316.887C297.855 317.138 297.773 317.338 297.608 317.485C297.452 317.632 297.236 317.706 296.958 317.706H296.659C296.391 317.706 296.174 317.632 296.009 317.485C295.853 317.338 295.775 317.138 295.775 316.887ZM301.074 326V318.85H302.257V319.903H302.361C302.387 319.53 302.5 319.24 302.699 319.032C302.907 318.824 303.185 318.72 303.531 318.72C303.861 318.72 304.121 318.82 304.311 319.019C304.502 319.218 304.641 319.513 304.727 319.903H304.818C304.844 319.53 304.961 319.24 305.169 319.032C305.377 318.824 305.659 318.72 306.014 318.72C306.448 318.72 306.794 318.885 307.054 319.214C307.323 319.535 307.457 319.981 307.457 320.553V326H306.144V320.618C306.144 320.341 306.088 320.128 305.975 319.981C305.863 319.834 305.698 319.76 305.481 319.76C305.022 319.76 304.792 320.063 304.792 320.67V326H303.739V320.618C303.739 320.341 303.679 320.128 303.557 319.981C303.436 319.834 303.263 319.76 303.037 319.76C302.587 319.76 302.361 320.063 302.361 320.67V326H301.074ZM309.194 318.85H310.559V320.085H310.663C310.759 319.652 310.975 319.318 311.313 319.084C311.66 318.841 312.093 318.72 312.613 318.72C312.977 318.72 313.311 318.785 313.614 318.915C313.918 319.045 314.173 319.231 314.381 319.474C314.598 319.717 314.763 320.011 314.875 320.358C314.997 320.696 315.057 321.082 315.057 321.515V323.309C315.057 323.742 314.997 324.137 314.875 324.492C314.763 324.839 314.598 325.133 314.381 325.376C314.173 325.619 313.918 325.805 313.614 325.935C313.311 326.065 312.977 326.13 312.613 326.13C312.093 326.13 311.66 326.013 311.313 325.779C310.975 325.536 310.759 325.198 310.663 324.765H310.559C310.559 324.774 310.564 324.821 310.572 324.908C310.581 324.995 310.585 325.099 310.585 325.22C310.594 325.341 310.603 325.471 310.611 325.61C310.62 325.749 310.624 325.879 310.624 326V328.21H309.194V318.85ZM310.624 321.541V323.309C310.624 323.786 310.754 324.167 311.014 324.453C311.283 324.739 311.643 324.882 312.093 324.882C312.57 324.882 312.943 324.739 313.211 324.453C313.489 324.167 313.627 323.781 313.627 323.296V321.541C313.627 321.047 313.489 320.661 313.211 320.384C312.943 320.098 312.57 319.955 312.093 319.955C311.651 319.955 311.296 320.098 311.027 320.384C310.759 320.67 310.624 321.056 310.624 321.541ZM318.627 318.85V320.085H318.744C318.84 319.652 319.061 319.318 319.407 319.084C319.763 318.841 320.205 318.72 320.733 318.72C321.496 318.72 322.094 318.958 322.527 319.435C322.961 319.903 323.177 320.557 323.177 321.398V321.866H321.708V321.541C321.708 321.038 321.574 320.648 321.305 320.371C321.037 320.085 320.668 319.942 320.2 319.942C319.741 319.942 319.377 320.085 319.108 320.371C318.84 320.657 318.705 321.047 318.705 321.541V326H317.275V318.85H318.627ZM327.644 326.13C327.185 326.13 326.769 326.065 326.396 325.935C326.032 325.796 325.72 325.606 325.46 325.363C325.2 325.112 324.996 324.813 324.849 324.466C324.71 324.119 324.641 323.734 324.641 323.309V321.528C324.641 321.103 324.71 320.718 324.849 320.371C324.996 320.024 325.2 319.73 325.46 319.487C325.72 319.236 326.032 319.045 326.396 318.915C326.769 318.776 327.185 318.707 327.644 318.707C328.103 318.707 328.515 318.772 328.879 318.902C329.252 319.032 329.568 319.223 329.828 319.474C330.088 319.717 330.287 320.011 330.426 320.358C330.573 320.696 330.647 321.082 330.647 321.515V323.309C330.647 323.734 330.578 324.124 330.439 324.479C330.3 324.826 330.101 325.12 329.841 325.363C329.581 325.606 329.265 325.796 328.892 325.935C328.519 326.065 328.103 326.13 327.644 326.13ZM326.071 323.309C326.071 323.794 326.21 324.176 326.487 324.453C326.764 324.73 327.15 324.869 327.644 324.869C328.129 324.869 328.511 324.73 328.788 324.453C329.074 324.176 329.217 323.794 329.217 323.309V321.528C329.217 321.043 329.074 320.661 328.788 320.384C328.511 320.107 328.129 319.968 327.644 319.968C327.159 319.968 326.773 320.107 326.487 320.384C326.21 320.661 326.071 321.043 326.071 321.528V323.309ZM332.072 318.85H333.567L335.179 323.66C335.248 323.842 335.296 324.011 335.322 324.167C335.357 324.323 335.383 324.462 335.4 324.583C335.417 324.722 335.426 324.847 335.426 324.96H335.53C335.53 324.847 335.539 324.722 335.556 324.583C335.573 324.462 335.595 324.323 335.621 324.167C335.656 324.011 335.703 323.842 335.764 323.66L337.298 318.85H338.806L336.297 326H334.633L332.072 318.85Z" fill="white"/>
<rect x="345" y="79" width="134" height="27" rx="13.5" fill="black"/>
<path d="M363.756 90.604V89.59C363.756 88.992 363.947 88.5197 364.328 88.173C364.718 87.8177 365.247 87.64 365.914 87.64H368.007V88.914H365.927C365.693 88.914 365.511 88.9747 365.381 89.096C365.251 89.2087 365.186 89.3777 365.186 89.603V90.604H368.007V91.904H365.186V97H363.756V91.904H361.728V90.604H363.756ZM372.695 97.13C372.236 97.13 371.82 97.065 371.447 96.935C371.083 96.7963 370.771 96.6057 370.511 96.363C370.251 96.1117 370.047 95.8127 369.9 95.466C369.761 95.1193 369.692 94.7337 369.692 94.309V92.528C369.692 92.1033 369.761 91.7177 369.9 91.371C370.047 91.0243 370.251 90.7297 370.511 90.487C370.771 90.2357 371.083 90.045 371.447 89.915C371.82 89.7763 372.236 89.707 372.695 89.707C373.154 89.707 373.566 89.772 373.93 89.902C374.303 90.032 374.619 90.2227 374.879 90.474C375.139 90.7167 375.338 91.0113 375.477 91.358C375.624 91.696 375.698 92.0817 375.698 92.515V94.309C375.698 94.7337 375.629 95.1237 375.49 95.479C375.351 95.8257 375.152 96.1203 374.892 96.363C374.632 96.6057 374.316 96.7963 373.943 96.935C373.57 97.065 373.154 97.13 372.695 97.13ZM371.122 94.309C371.122 94.7943 371.261 95.1757 371.538 95.453C371.815 95.7303 372.201 95.869 372.695 95.869C373.18 95.869 373.562 95.7303 373.839 95.453C374.125 95.1757 374.268 94.7943 374.268 94.309V92.528C374.268 92.0427 374.125 91.6613 373.839 91.384C373.562 91.1067 373.18 90.968 372.695 90.968C372.21 90.968 371.824 91.1067 371.538 91.384C371.261 91.6613 371.122 92.0427 371.122 92.528V94.309ZM380.49 97.13C380.031 97.13 379.615 97.065 379.242 96.935C378.878 96.7963 378.566 96.6057 378.306 96.363C378.046 96.1117 377.842 95.8127 377.695 95.466C377.556 95.1193 377.487 94.7337 377.487 94.309V92.528C377.487 92.1033 377.556 91.7177 377.695 91.371C377.842 91.0243 378.046 90.7297 378.306 90.487C378.566 90.2357 378.878 90.045 379.242 89.915C379.615 89.7763 380.031 89.707 380.49 89.707C380.949 89.707 381.361 89.772 381.725 89.902C382.098 90.032 382.414 90.2227 382.674 90.474C382.934 90.7167 383.133 91.0113 383.272 91.358C383.419 91.696 383.493 92.0817 383.493 92.515V94.309C383.493 94.7337 383.424 95.1237 383.285 95.479C383.146 95.8257 382.947 96.1203 382.687 96.363C382.427 96.6057 382.111 96.7963 381.738 96.935C381.365 97.065 380.949 97.13 380.49 97.13ZM378.917 94.309C378.917 94.7943 379.056 95.1757 379.333 95.453C379.61 95.7303 379.996 95.869 380.49 95.869C380.975 95.869 381.357 95.7303 381.634 95.453C381.92 95.1757 382.063 94.7943 382.063 94.309V92.528C382.063 92.0427 381.92 91.6613 381.634 91.384C381.357 91.1067 380.975 90.968 380.49 90.968C380.005 90.968 379.619 91.1067 379.333 91.384C379.056 91.6613 378.917 92.0427 378.917 92.528V94.309ZM385.061 89.85H387.076V87.64H388.506V89.85H391.249V91.137H388.506V94.946C388.506 95.18 388.575 95.3663 388.714 95.505C388.852 95.635 389.047 95.7 389.299 95.7H391.119V97H389.234C388.566 97 388.038 96.8137 387.648 96.441C387.266 96.0683 387.076 95.57 387.076 94.946V91.137H385.061V89.85ZM393.077 92.489C393.077 92.0643 393.146 91.683 393.285 91.345C393.423 90.9983 393.623 90.708 393.883 90.474C394.143 90.2313 394.459 90.045 394.832 89.915C395.204 89.785 395.62 89.72 396.08 89.72C396.539 89.72 396.951 89.785 397.315 89.915C397.687 90.045 398.004 90.2313 398.264 90.474C398.524 90.708 398.723 90.9983 398.862 91.345C399 91.683 399.07 92.0643 399.07 92.489V93.802H394.494V94.309C394.494 94.8203 394.632 95.219 394.91 95.505C395.196 95.791 395.586 95.934 396.08 95.934C396.444 95.934 396.76 95.8777 397.029 95.765C397.297 95.6523 397.492 95.4833 397.614 95.258H399.018C398.94 95.544 398.814 95.804 398.641 96.038C398.467 96.2633 398.251 96.4583 397.991 96.623C397.739 96.7877 397.449 96.9133 397.12 97C396.799 97.0867 396.452 97.13 396.08 97.13C395.62 97.13 395.204 97.065 394.832 96.935C394.468 96.805 394.156 96.6187 393.896 96.376C393.636 96.1333 393.432 95.843 393.285 95.505C393.146 95.1583 393.077 94.7727 393.077 94.348V92.489ZM394.494 92.762H397.666V92.489C397.666 91.995 397.527 91.6093 397.25 91.332C396.972 91.0547 396.582 90.916 396.08 90.916C395.577 90.916 395.187 91.0547 394.91 91.332C394.632 91.6093 394.494 91.995 394.494 92.489V92.762ZM402.653 89.85V91.085H402.77C402.865 90.6517 403.086 90.318 403.433 90.084C403.788 89.8413 404.23 89.72 404.759 89.72C405.521 89.72 406.119 89.9583 406.553 90.435C406.986 90.903 407.203 91.5573 407.203 92.398V92.866H405.734V92.541C405.734 92.0383 405.599 91.6483 405.331 91.371C405.062 91.085 404.694 90.942 404.226 90.942C403.766 90.942 403.402 91.085 403.134 91.371C402.865 91.657 402.731 92.047 402.731 92.541V97H401.301V89.85H402.653ZM409.07 92.06H414.27V93.36H409.07V92.06ZM418.06 89.85V94.387C418.06 95.3837 418.524 95.882 419.451 95.882C420.396 95.882 420.868 95.3837 420.868 94.387V89.85H422.298V94.387C422.298 95.2623 422.051 95.9383 421.557 96.415C421.063 96.8917 420.361 97.13 419.451 97.13C418.559 97.13 417.865 96.8917 417.371 96.415C416.877 95.9297 416.63 95.2537 416.63 94.387V89.85H418.06ZM424.399 89.85H425.764V91.085H425.868C425.964 90.6517 426.18 90.318 426.518 90.084C426.865 89.8413 427.298 89.72 427.818 89.72C428.182 89.72 428.516 89.785 428.819 89.915C429.123 90.045 429.378 90.2313 429.586 90.474C429.803 90.7167 429.968 91.0113 430.08 91.358C430.202 91.696 430.262 92.0817 430.262 92.515V94.309C430.262 94.7423 430.202 95.1367 430.08 95.492C429.968 95.8387 429.803 96.1333 429.586 96.376C429.378 96.6187 429.123 96.805 428.819 96.935C428.516 97.065 428.182 97.13 427.818 97.13C427.298 97.13 426.865 97.013 426.518 96.779C426.18 96.5363 425.964 96.1983 425.868 95.765H425.764C425.764 95.7737 425.769 95.8213 425.777 95.908C425.786 95.9947 425.79 96.0987 425.79 96.22C425.799 96.3413 425.808 96.4713 425.816 96.61C425.825 96.7487 425.829 96.8787 425.829 97V99.21H424.399V89.85ZM425.829 92.541V94.309C425.829 94.7857 425.959 95.167 426.219 95.453C426.488 95.739 426.848 95.882 427.298 95.882C427.775 95.882 428.148 95.739 428.416 95.453C428.694 95.167 428.832 94.7813 428.832 94.296V92.541C428.832 92.047 428.694 91.6613 428.416 91.384C428.148 91.098 427.775 90.955 427.298 90.955C426.856 90.955 426.501 91.098 426.232 91.384C425.964 91.67 425.829 92.0557 425.829 92.541ZM432.051 92.515C432.051 92.0817 432.108 91.696 432.22 91.358C432.342 91.0113 432.506 90.7167 432.714 90.474C432.931 90.2313 433.191 90.045 433.494 89.915C433.798 89.785 434.131 89.72 434.495 89.72C435.015 89.72 435.444 89.8413 435.782 90.084C436.129 90.318 436.35 90.6517 436.445 91.085H436.562C436.554 90.9377 436.545 90.7903 436.536 90.643C436.519 90.513 436.506 90.3787 436.497 90.24C436.497 90.0927 436.497 89.9627 436.497 89.85V87.64H437.914V97H436.562V95.765H436.445C436.35 96.1983 436.129 96.5363 435.782 96.779C435.444 97.013 435.015 97.13 434.495 97.13C434.131 97.13 433.798 97.065 433.494 96.935C433.191 96.805 432.931 96.6187 432.714 96.376C432.506 96.1333 432.342 95.8387 432.22 95.492C432.108 95.1367 432.051 94.7423 432.051 94.309V92.515ZM433.481 92.541V94.296C433.481 94.7813 433.616 95.167 433.884 95.453C434.162 95.739 434.539 95.882 435.015 95.882C435.466 95.882 435.826 95.739 436.094 95.453C436.363 95.167 436.497 94.7857 436.497 94.309V92.541C436.497 92.0557 436.359 91.67 436.081 91.384C435.813 91.098 435.457 90.955 435.015 90.955C434.539 90.955 434.162 91.098 433.884 91.384C433.616 91.6613 433.481 92.047 433.481 92.541ZM439.677 94.959C439.677 94.2657 439.916 93.7153 440.392 93.308C440.878 92.9007 441.532 92.697 442.355 92.697H444.292V92.099C444.292 91.7177 444.158 91.423 443.889 91.215C443.629 90.9983 443.257 90.89 442.771 90.89C442.399 90.89 442.082 90.9593 441.822 91.098C441.562 91.228 441.389 91.4143 441.302 91.657H439.898C440.011 91.059 440.327 90.5867 440.847 90.24C441.367 89.8933 442.013 89.72 442.784 89.72C443.694 89.72 444.409 89.928 444.929 90.344C445.458 90.76 445.722 91.332 445.722 92.06V97H444.396V95.609H444.292C444.197 96.077 443.941 96.4497 443.525 96.727C443.118 96.9957 442.611 97.13 442.004 97.13C441.294 97.13 440.726 96.935 440.301 96.545C439.885 96.1463 439.677 95.6177 439.677 94.959ZM441.107 94.842C441.107 95.206 441.224 95.4877 441.458 95.687C441.692 95.8863 442.022 95.986 442.446 95.986C442.715 95.986 442.962 95.9513 443.187 95.882C443.413 95.8127 443.608 95.7173 443.772 95.596C443.937 95.466 444.063 95.3187 444.149 95.154C444.245 94.9807 444.292 94.7943 444.292 94.595V93.698H442.368C441.978 93.698 441.671 93.7977 441.445 93.997C441.22 94.1963 441.107 94.478 441.107 94.842ZM447.42 89.85H449.435V87.64H450.865V89.85H453.608V91.137H450.865V94.946C450.865 95.18 450.934 95.3663 451.073 95.505C451.212 95.635 451.407 95.7 451.658 95.7H453.478V97H451.593C450.926 97 450.397 96.8137 450.007 96.441C449.626 96.0683 449.435 95.57 449.435 94.946V91.137H447.42V89.85ZM455.436 92.489C455.436 92.0643 455.505 91.683 455.644 91.345C455.783 90.9983 455.982 90.708 456.242 90.474C456.502 90.2313 456.818 90.045 457.191 89.915C457.564 89.785 457.98 89.72 458.439 89.72C458.898 89.72 459.31 89.785 459.674 89.915C460.047 90.045 460.363 90.2313 460.623 90.474C460.883 90.708 461.082 90.9983 461.221 91.345C461.36 91.683 461.429 92.0643 461.429 92.489V93.802H456.853V94.309C456.853 94.8203 456.992 95.219 457.269 95.505C457.555 95.791 457.945 95.934 458.439 95.934C458.803 95.934 459.119 95.8777 459.388 95.765C459.657 95.6523 459.852 95.4833 459.973 95.258H461.377C461.299 95.544 461.173 95.804 461 96.038C460.827 96.2633 460.61 96.4583 460.35 96.623C460.099 96.7877 459.808 96.9133 459.479 97C459.158 97.0867 458.812 97.13 458.439 97.13C457.98 97.13 457.564 97.065 457.191 96.935C456.827 96.805 456.515 96.6187 456.255 96.376C455.995 96.1333 455.791 95.843 455.644 95.505C455.505 95.1583 455.436 94.7727 455.436 94.348V92.489ZM456.853 92.762H460.025V92.489C460.025 91.995 459.886 91.6093 459.609 91.332C459.332 91.0547 458.942 90.916 458.439 90.916C457.936 90.916 457.546 91.0547 457.269 91.332C456.992 91.6093 456.853 91.995 456.853 92.489V92.762Z" fill="white"/>
<rect x="558" width="126" height="27" rx="13.5" fill="black"/>
<path d="M575.157 16.7H577.731V12.137H575.482V10.85H579.122V16.7H581.215V18H575.157V16.7ZM577.211 8.887C577.211 8.63567 577.289 8.43633 577.445 8.289C577.61 8.133 577.826 8.055 578.095 8.055H578.407C578.676 8.055 578.888 8.133 579.044 8.289C579.209 8.43633 579.291 8.63567 579.291 8.887C579.291 9.13833 579.209 9.33767 579.044 9.485C578.888 9.63233 578.671 9.706 578.394 9.706H578.095C577.826 9.706 577.61 9.63233 577.445 9.485C577.289 9.33767 577.211 9.13833 577.211 8.887ZM582.51 18V10.85H583.693V11.903H583.797C583.823 11.5303 583.936 11.24 584.135 11.032C584.343 10.824 584.62 10.72 584.967 10.72C585.296 10.72 585.556 10.8197 585.747 11.019C585.938 11.2183 586.076 11.513 586.163 11.903H586.254C586.28 11.5303 586.397 11.24 586.605 11.032C586.813 10.824 587.095 10.72 587.45 10.72C587.883 10.72 588.23 10.8847 588.49 11.214C588.759 11.5347 588.893 11.981 588.893 12.553V18H587.58V12.618C587.58 12.3407 587.524 12.1283 587.411 11.981C587.298 11.8337 587.134 11.76 586.917 11.76C586.458 11.76 586.228 12.0633 586.228 12.67V18H585.175V12.618C585.175 12.3407 585.114 12.1283 584.993 11.981C584.872 11.8337 584.698 11.76 584.473 11.76C584.022 11.76 583.797 12.0633 583.797 12.67V18H582.51ZM590.63 10.85H591.995V12.085H592.099C592.194 11.6517 592.411 11.318 592.749 11.084C593.096 10.8413 593.529 10.72 594.049 10.72C594.413 10.72 594.747 10.785 595.05 10.915C595.353 11.045 595.609 11.2313 595.817 11.474C596.034 11.7167 596.198 12.0113 596.311 12.358C596.432 12.696 596.493 13.0817 596.493 13.515V15.309C596.493 15.7423 596.432 16.1367 596.311 16.492C596.198 16.8387 596.034 17.1333 595.817 17.376C595.609 17.6187 595.353 17.805 595.05 17.935C594.747 18.065 594.413 18.13 594.049 18.13C593.529 18.13 593.096 18.013 592.749 17.779C592.411 17.5363 592.194 17.1983 592.099 16.765H591.995C591.995 16.7737 591.999 16.8213 592.008 16.908C592.017 16.9947 592.021 17.0987 592.021 17.22C592.03 17.3413 592.038 17.4713 592.047 17.61C592.056 17.7487 592.06 17.8787 592.06 18V20.21H590.63V10.85ZM592.06 13.541V15.309C592.06 15.7857 592.19 16.167 592.45 16.453C592.719 16.739 593.078 16.882 593.529 16.882C594.006 16.882 594.378 16.739 594.647 16.453C594.924 16.167 595.063 15.7813 595.063 15.296V13.541C595.063 13.047 594.924 12.6613 594.647 12.384C594.378 12.098 594.006 11.955 593.529 11.955C593.087 11.955 592.732 12.098 592.463 12.384C592.194 12.67 592.06 13.0557 592.06 13.541ZM600.063 10.85V12.085H600.18C600.275 11.6517 600.496 11.318 600.843 11.084C601.198 10.8413 601.64 10.72 602.169 10.72C602.931 10.72 603.529 10.9583 603.963 11.435C604.396 11.903 604.613 12.5573 604.613 13.398V13.866H603.144V13.541C603.144 13.0383 603.009 12.6483 602.741 12.371C602.472 12.085 602.104 11.942 601.636 11.942C601.176 11.942 600.812 12.085 600.544 12.371C600.275 12.657 600.141 13.047 600.141 13.541V18H598.711V10.85H600.063ZM609.08 18.13C608.62 18.13 608.204 18.065 607.832 17.935C607.468 17.7963 607.156 17.6057 606.896 17.363C606.636 17.1117 606.432 16.8127 606.285 16.466C606.146 16.1193 606.077 15.7337 606.077 15.309V13.528C606.077 13.1033 606.146 12.7177 606.285 12.371C606.432 12.0243 606.636 11.7297 606.896 11.487C607.156 11.2357 607.468 11.045 607.832 10.915C608.204 10.7763 608.62 10.707 609.08 10.707C609.539 10.707 609.951 10.772 610.315 10.902C610.687 11.032 611.004 11.2227 611.264 11.474C611.524 11.7167 611.723 12.0113 611.862 12.358C612.009 12.696 612.083 13.0817 612.083 13.515V15.309C612.083 15.7337 612.013 16.1237 611.875 16.479C611.736 16.8257 611.537 17.1203 611.277 17.363C611.017 17.6057 610.7 17.7963 610.328 17.935C609.955 18.065 609.539 18.13 609.08 18.13ZM607.507 15.309C607.507 15.7943 607.645 16.1757 607.923 16.453C608.2 16.7303 608.586 16.869 609.08 16.869C609.565 16.869 609.946 16.7303 610.224 16.453C610.51 16.1757 610.653 15.7943 610.653 15.309V13.528C610.653 13.0427 610.51 12.6613 610.224 12.384C609.946 12.1067 609.565 11.968 609.08 11.968C608.594 11.968 608.209 12.1067 607.923 12.384C607.645 12.6613 607.507 13.0427 607.507 13.528V15.309ZM613.508 10.85H615.003L616.615 15.66C616.684 15.842 616.732 16.011 616.758 16.167C616.792 16.323 616.818 16.4617 616.836 16.583C616.853 16.7217 616.862 16.8473 616.862 16.96H616.966C616.966 16.8473 616.974 16.7217 616.992 16.583C617.009 16.4617 617.031 16.323 617.057 16.167C617.091 16.011 617.139 15.842 617.2 15.66L618.734 10.85H620.242L617.733 18H616.069L613.508 10.85ZM621.667 13.489C621.667 13.0643 621.736 12.683 621.875 12.345C622.013 11.9983 622.213 11.708 622.473 11.474C622.733 11.2313 623.049 11.045 623.422 10.915C623.794 10.785 624.21 10.72 624.67 10.72C625.129 10.72 625.541 10.785 625.905 10.915C626.277 11.045 626.594 11.2313 626.854 11.474C627.114 11.708 627.313 11.9983 627.452 12.345C627.59 12.683 627.66 13.0643 627.66 13.489V14.802H623.084V15.309C623.084 15.8203 623.222 16.219 623.5 16.505C623.786 16.791 624.176 16.934 624.67 16.934C625.034 16.934 625.35 16.8777 625.619 16.765C625.887 16.6523 626.082 16.4833 626.204 16.258H627.608C627.53 16.544 627.404 16.804 627.231 17.038C627.057 17.2633 626.841 17.4583 626.581 17.623C626.329 17.7877 626.039 17.9133 625.71 18C625.389 18.0867 625.042 18.13 624.67 18.13C624.21 18.13 623.794 18.065 623.422 17.935C623.058 17.805 622.746 17.6187 622.486 17.376C622.226 17.1333 622.022 16.843 621.875 16.505C621.736 16.1583 621.667 15.7727 621.667 15.348V13.489ZM623.084 13.762H626.256V13.489C626.256 12.995 626.117 12.6093 625.84 12.332C625.562 12.0547 625.172 11.916 624.67 11.916C624.167 11.916 623.777 12.0547 623.5 12.332C623.222 12.6093 623.084 12.995 623.084 13.489V13.762ZM632.555 18.13C632.096 18.13 631.68 18.065 631.307 17.935C630.943 17.805 630.631 17.6187 630.371 17.376C630.111 17.1333 629.912 16.8387 629.773 16.492C629.635 16.1453 629.565 15.7597 629.565 15.335V13.515C629.565 13.0903 629.635 12.7047 629.773 12.358C629.912 12.0113 630.111 11.7167 630.371 11.474C630.631 11.2313 630.943 11.045 631.307 10.915C631.68 10.785 632.096 10.72 632.555 10.72C632.963 10.72 633.335 10.7763 633.673 10.889C634.02 11.0017 634.323 11.1663 634.583 11.383C634.843 11.5997 635.056 11.8597 635.22 12.163C635.394 12.4663 635.506 12.8087 635.558 13.19H634.128C634.068 12.826 633.894 12.5313 633.608 12.306C633.322 12.0807 632.971 11.968 632.555 11.968C632.061 11.968 631.676 12.1067 631.398 12.384C631.121 12.6527 630.982 13.0297 630.982 13.515V15.335C630.982 15.8203 631.121 16.1973 631.398 16.466C631.676 16.7347 632.061 16.869 632.555 16.869C632.971 16.869 633.322 16.7607 633.608 16.544C633.894 16.3187 634.068 16.024 634.128 15.66H635.558C635.437 16.4227 635.108 17.025 634.57 17.467C634.042 17.909 633.37 18.13 632.555 18.13ZM637.087 15.959C637.087 15.2657 637.326 14.7153 637.802 14.308C638.288 13.9007 638.942 13.697 639.765 13.697H641.702V13.099C641.702 12.7177 641.568 12.423 641.299 12.215C641.039 11.9983 640.667 11.89 640.181 11.89C639.809 11.89 639.492 11.9593 639.232 12.098C638.972 12.228 638.799 12.4143 638.712 12.657H637.308C637.421 12.059 637.737 11.5867 638.257 11.24C638.777 10.8933 639.423 10.72 640.194 10.72C641.104 10.72 641.819 10.928 642.339 11.344C642.868 11.76 643.132 12.332 643.132 13.06V18H641.806V16.609H641.702C641.607 17.077 641.351 17.4497 640.935 17.727C640.528 17.9957 640.021 18.13 639.414 18.13C638.704 18.13 638.136 17.935 637.711 17.545C637.295 17.1463 637.087 16.6177 637.087 15.959ZM638.517 15.842C638.517 16.206 638.634 16.4877 638.868 16.687C639.102 16.8863 639.432 16.986 639.856 16.986C640.125 16.986 640.372 16.9513 640.597 16.882C640.823 16.8127 641.018 16.7173 641.182 16.596C641.347 16.466 641.473 16.3187 641.559 16.154C641.655 15.9807 641.702 15.7943 641.702 15.595V14.698H639.778C639.388 14.698 639.081 14.7977 638.855 14.997C638.63 15.1963 638.517 15.478 638.517 15.842ZM646.832 10.85V12.085H646.949C647.045 11.6517 647.266 11.318 647.612 11.084C647.968 10.8413 648.41 10.72 648.938 10.72C649.701 10.72 650.299 10.9583 650.732 11.435C651.166 11.903 651.382 12.5573 651.382 13.398V13.866H649.913V13.541C649.913 13.0383 649.779 12.6483 649.51 12.371C649.242 12.085 648.873 11.942 648.405 11.942C647.946 11.942 647.582 12.085 647.313 12.371C647.045 12.657 646.91 13.047 646.91 13.541V18H645.48V10.85H646.832ZM652.846 13.515C652.846 13.0817 652.903 12.696 653.015 12.358C653.137 12.0113 653.301 11.7167 653.509 11.474C653.726 11.2313 653.986 11.045 654.289 10.915C654.593 10.785 654.926 10.72 655.29 10.72C655.81 10.72 656.239 10.8413 656.577 11.084C656.924 11.318 657.145 11.6517 657.24 12.085H657.357C657.349 11.9377 657.34 11.7903 657.331 11.643C657.314 11.513 657.301 11.3787 657.292 11.24C657.292 11.0927 657.292 10.9627 657.292 10.85V8.64H658.709V18H657.357V16.765H657.24C657.145 17.1983 656.924 17.5363 656.577 17.779C656.239 18.013 655.81 18.13 655.29 18.13C654.926 18.13 654.593 18.065 654.289 17.935C653.986 17.805 653.726 17.6187 653.509 17.376C653.301 17.1333 653.137 16.8387 653.015 16.492C652.903 16.1367 652.846 15.7423 652.846 15.309V13.515ZM654.276 13.541V15.296C654.276 15.7813 654.411 16.167 654.679 16.453C654.957 16.739 655.334 16.882 655.81 16.882C656.261 16.882 656.621 16.739 656.889 16.453C657.158 16.167 657.292 15.7857 657.292 15.309V13.541C657.292 13.0557 657.154 12.67 656.876 12.384C656.608 12.098 656.252 11.955 655.81 11.955C655.334 11.955 654.957 12.098 654.679 12.384C654.411 12.6613 654.276 13.047 654.276 13.541ZM660.602 16.206H662.084C662.136 16.44 662.279 16.6263 662.513 16.765C662.756 16.9037 663.05 16.973 663.397 16.973H663.865C664.29 16.973 664.619 16.8863 664.853 16.713C665.096 16.5397 665.217 16.3013 665.217 15.998C665.217 15.478 664.836 15.166 664.073 15.062L663.033 14.919C662.262 14.815 661.69 14.594 661.317 14.256C660.953 13.9093 660.771 13.424 660.771 12.8C660.771 12.1413 661.001 11.63 661.46 11.266C661.928 10.902 662.591 10.72 663.449 10.72H663.904C664.658 10.72 665.269 10.889 665.737 11.227C666.214 11.5563 666.495 12.007 666.582 12.579H665.113C665.061 12.3623 664.927 12.1933 664.71 12.072C664.493 11.942 664.225 11.877 663.904 11.877H663.449C663.042 11.877 662.73 11.955 662.513 12.111C662.296 12.2583 662.188 12.4837 662.188 12.787C662.188 13.0383 662.266 13.2333 662.422 13.372C662.587 13.5107 662.847 13.6017 663.202 13.645L664.268 13.788C665.083 13.9007 665.681 14.1303 666.062 14.477C666.443 14.8237 666.634 15.3177 666.634 15.959C666.634 16.6523 666.396 17.1897 665.919 17.571C665.442 17.9437 664.758 18.13 663.865 18.13H663.397C662.6 18.13 661.95 17.961 661.447 17.623C660.953 17.2763 660.671 16.804 660.602 16.206Z" fill="white"/>
<g filter="url(#filter0_dd)">
<path fill-rule="evenodd" clip-rule="evenodd" d="M463 148L454 139L445 148H429C426.791 148 425 149.791 425 152V214C425 216.209 426.791 218 429 218H623C625.209 218 627 216.209 627 214V152C627 149.791 625.209 148 623 148H463Z" fill="white"/>
<path d="M437.548 161.64L438.588 164.695C438.631 164.825 438.67 164.968 438.705 165.124C438.748 165.271 438.779 165.41 438.796 165.54C438.831 165.696 438.857 165.848 438.874 165.995H438.978C439.004 165.848 439.034 165.696 439.069 165.54C439.095 165.41 439.125 165.271 439.16 165.124C439.195 164.968 439.234 164.825 439.277 164.695L440.239 161.64H441.981V171H440.694V164.708C440.694 164.474 440.703 164.24 440.72 164.006C440.737 163.772 440.755 163.555 440.772 163.356C440.789 163.131 440.811 162.914 440.837 162.706H440.694C440.642 162.905 440.59 163.109 440.538 163.317C440.495 163.499 440.443 163.703 440.382 163.928C440.321 164.145 440.256 164.357 440.187 164.565L439.472 166.866H438.354L437.613 164.565C437.544 164.331 437.474 164.106 437.405 163.889C437.344 163.664 437.288 163.464 437.236 163.291C437.184 163.083 437.136 162.888 437.093 162.706H436.976C437.002 162.914 437.024 163.131 437.041 163.356C437.058 163.555 437.071 163.772 437.08 164.006C437.097 164.24 437.106 164.474 437.106 164.708V171H435.832V161.64H437.548ZM443.692 166.489C443.692 166.064 443.761 165.683 443.9 165.345C444.039 164.998 444.238 164.708 444.498 164.474C444.758 164.231 445.074 164.045 445.447 163.915C445.82 163.785 446.236 163.72 446.695 163.72C447.154 163.72 447.566 163.785 447.93 163.915C448.303 164.045 448.619 164.231 448.879 164.474C449.139 164.708 449.338 164.998 449.477 165.345C449.616 165.683 449.685 166.064 449.685 166.489V167.802H445.109V168.309C445.109 168.82 445.248 169.219 445.525 169.505C445.811 169.791 446.201 169.934 446.695 169.934C447.059 169.934 447.375 169.878 447.644 169.765C447.913 169.652 448.108 169.483 448.229 169.258H449.633C449.555 169.544 449.429 169.804 449.256 170.038C449.083 170.263 448.866 170.458 448.606 170.623C448.355 170.788 448.064 170.913 447.735 171C447.414 171.087 447.068 171.13 446.695 171.13C446.236 171.13 445.82 171.065 445.447 170.935C445.083 170.805 444.771 170.619 444.511 170.376C444.251 170.133 444.047 169.843 443.9 169.505C443.761 169.158 443.692 168.773 443.692 168.348V166.489ZM445.109 166.762H448.281V166.489C448.281 165.995 448.142 165.609 447.865 165.332C447.588 165.055 447.198 164.916 446.695 164.916C446.192 164.916 445.802 165.055 445.525 165.332C445.248 165.609 445.109 165.995 445.109 166.489V166.762ZM453.268 163.85V165.085H453.385C453.48 164.652 453.701 164.318 454.048 164.084C454.403 163.841 454.845 163.72 455.374 163.72C456.137 163.72 456.735 163.958 457.168 164.435C457.601 164.903 457.818 165.557 457.818 166.398V166.866H456.349V166.541C456.349 166.038 456.215 165.648 455.946 165.371C455.677 165.085 455.309 164.942 454.841 164.942C454.382 164.942 454.018 165.085 453.749 165.371C453.48 165.657 453.346 166.047 453.346 166.541V171H451.916V163.85H453.268ZM459.23 166.476C459.23 166.06 459.286 165.683 459.399 165.345C459.511 164.998 459.676 164.708 459.893 164.474C460.109 164.231 460.369 164.045 460.673 163.915C460.976 163.785 461.314 163.72 461.687 163.72C462.215 163.72 462.657 163.846 463.013 164.097C463.368 164.348 463.598 164.699 463.702 165.15H463.793V163.85H465.145V170.571C465.145 171.386 464.885 172.027 464.365 172.495C463.853 172.972 463.147 173.21 462.246 173.21H460.4V171.988H462.246C462.705 171.988 463.065 171.862 463.325 171.611C463.593 171.36 463.728 171.013 463.728 170.571V170.324L463.78 169.024H463.702C463.589 169.475 463.355 169.826 463 170.077C462.644 170.328 462.202 170.454 461.674 170.454C461.301 170.454 460.963 170.389 460.66 170.259C460.365 170.129 460.109 169.947 459.893 169.713C459.685 169.47 459.52 169.18 459.399 168.842C459.286 168.504 459.23 168.127 459.23 167.711V166.476ZM460.673 167.685C460.673 168.162 460.807 168.539 461.076 168.816C461.353 169.085 461.726 169.219 462.194 169.219C462.67 169.219 463.043 169.085 463.312 168.816C463.589 168.539 463.728 168.162 463.728 167.685V166.489C463.728 166.012 463.589 165.64 463.312 165.371C463.043 165.094 462.67 164.955 462.194 164.955C461.726 164.955 461.353 165.094 461.076 165.371C460.807 165.64 460.673 166.012 460.673 166.489V167.685ZM467.077 166.489C467.077 166.064 467.146 165.683 467.285 165.345C467.423 164.998 467.623 164.708 467.883 164.474C468.143 164.231 468.459 164.045 468.832 163.915C469.204 163.785 469.62 163.72 470.08 163.72C470.539 163.72 470.951 163.785 471.315 163.915C471.687 164.045 472.004 164.231 472.264 164.474C472.524 164.708 472.723 164.998 472.862 165.345C473 165.683 473.07 166.064 473.07 166.489V167.802H468.494V168.309C468.494 168.82 468.632 169.219 468.91 169.505C469.196 169.791 469.586 169.934 470.08 169.934C470.444 169.934 470.76 169.878 471.029 169.765C471.297 169.652 471.492 169.483 471.614 169.258H473.018C472.94 169.544 472.814 169.804 472.641 170.038C472.467 170.263 472.251 170.458 471.991 170.623C471.739 170.788 471.449 170.913 471.12 171C470.799 171.087 470.452 171.13 470.08 171.13C469.62 171.13 469.204 171.065 468.832 170.935C468.468 170.805 468.156 170.619 467.896 170.376C467.636 170.133 467.432 169.843 467.285 169.505C467.146 169.158 467.077 168.773 467.077 168.348V166.489ZM468.494 166.762H471.666V166.489C471.666 165.995 471.527 165.609 471.25 165.332C470.972 165.055 470.582 164.916 470.08 164.916C469.577 164.916 469.187 165.055 468.91 165.332C468.632 165.609 468.494 165.995 468.494 166.489V166.762ZM482.81 161.64H484.24V163.759C484.24 163.88 484.235 164.019 484.227 164.175C484.227 164.331 484.222 164.478 484.214 164.617C484.196 164.773 484.183 164.929 484.175 165.085H484.279C484.374 164.652 484.591 164.318 484.929 164.084C485.275 163.841 485.709 163.72 486.229 163.72C486.593 163.72 486.926 163.785 487.23 163.915C487.533 164.045 487.789 164.231 487.997 164.474C488.213 164.717 488.378 165.011 488.491 165.358C488.612 165.696 488.673 166.082 488.673 166.515V168.309C488.673 168.742 488.612 169.137 488.491 169.492C488.378 169.839 488.213 170.133 487.997 170.376C487.789 170.619 487.533 170.805 487.23 170.935C486.926 171.065 486.593 171.13 486.229 171.13C485.709 171.13 485.275 171.013 484.929 170.779C484.591 170.536 484.374 170.198 484.279 169.765H484.175V171H482.81V161.64ZM484.24 168.309C484.24 168.786 484.37 169.167 484.63 169.453C484.898 169.739 485.258 169.882 485.709 169.882C486.185 169.882 486.558 169.739 486.827 169.453C487.104 169.167 487.243 168.781 487.243 168.296V166.541C487.243 166.047 487.104 165.661 486.827 165.384C486.558 165.098 486.185 164.955 485.709 164.955C485.267 164.955 484.911 165.098 484.643 165.384C484.374 165.67 484.24 166.056 484.24 166.541V168.309ZM492.242 163.85V165.085H492.359C492.455 164.652 492.676 164.318 493.022 164.084C493.378 163.841 493.82 163.72 494.348 163.72C495.111 163.72 495.709 163.958 496.142 164.435C496.576 164.903 496.792 165.557 496.792 166.398V166.866H495.323V166.541C495.323 166.038 495.189 165.648 494.92 165.371C494.652 165.085 494.283 164.942 493.815 164.942C493.356 164.942 492.992 165.085 492.723 165.371C492.455 165.657 492.32 166.047 492.32 166.541V171H490.89V163.85H492.242ZM498.087 168.959C498.087 168.266 498.326 167.715 498.802 167.308C499.288 166.901 499.942 166.697 500.765 166.697H502.702V166.099C502.702 165.718 502.568 165.423 502.299 165.215C502.039 164.998 501.667 164.89 501.181 164.89C500.809 164.89 500.492 164.959 500.232 165.098C499.972 165.228 499.799 165.414 499.712 165.657H498.308C498.421 165.059 498.737 164.587 499.257 164.24C499.777 163.893 500.423 163.72 501.194 163.72C502.104 163.72 502.819 163.928 503.339 164.344C503.868 164.76 504.132 165.332 504.132 166.06V171H502.806V169.609H502.702C502.607 170.077 502.351 170.45 501.935 170.727C501.528 170.996 501.021 171.13 500.414 171.13C499.704 171.13 499.136 170.935 498.711 170.545C498.295 170.146 498.087 169.618 498.087 168.959ZM499.517 168.842C499.517 169.206 499.634 169.488 499.868 169.687C500.102 169.886 500.432 169.986 500.856 169.986C501.125 169.986 501.372 169.951 501.597 169.882C501.823 169.813 502.018 169.717 502.182 169.596C502.347 169.466 502.473 169.319 502.559 169.154C502.655 168.981 502.702 168.794 502.702 168.595V167.698H500.778C500.388 167.698 500.081 167.798 499.855 167.997C499.63 168.196 499.517 168.478 499.517 168.842ZM506.181 163.85H507.533V165.085H507.65C507.746 164.643 507.958 164.305 508.287 164.071C508.617 163.837 509.041 163.72 509.561 163.72C509.934 163.72 510.263 163.785 510.549 163.915C510.844 164.036 511.091 164.21 511.29 164.435C511.498 164.66 511.654 164.933 511.758 165.254C511.862 165.566 511.914 165.913 511.914 166.294V171H510.484V166.489C510.484 165.995 510.359 165.614 510.107 165.345C509.856 165.076 509.509 164.942 509.067 164.942C508.617 164.942 508.261 165.085 508.001 165.371C507.741 165.657 507.611 166.047 507.611 166.541V171H506.181V163.85ZM516.94 171.13C516.481 171.13 516.065 171.065 515.692 170.935C515.328 170.805 515.016 170.619 514.756 170.376C514.496 170.133 514.297 169.839 514.158 169.492C514.02 169.145 513.95 168.76 513.95 168.335V166.515C513.95 166.09 514.02 165.705 514.158 165.358C514.297 165.011 514.496 164.717 514.756 164.474C515.016 164.231 515.328 164.045 515.692 163.915C516.065 163.785 516.481 163.72 516.94 163.72C517.348 163.72 517.72 163.776 518.058 163.889C518.405 164.002 518.708 164.166 518.968 164.383C519.228 164.6 519.441 164.86 519.605 165.163C519.779 165.466 519.891 165.809 519.943 166.19H518.513C518.453 165.826 518.279 165.531 517.993 165.306C517.707 165.081 517.356 164.968 516.94 164.968C516.446 164.968 516.061 165.107 515.783 165.384C515.506 165.653 515.367 166.03 515.367 166.515V168.335C515.367 168.82 515.506 169.197 515.783 169.466C516.061 169.735 516.446 169.869 516.94 169.869C517.356 169.869 517.707 169.761 517.993 169.544C518.279 169.319 518.453 169.024 518.513 168.66H519.943C519.822 169.423 519.493 170.025 518.955 170.467C518.427 170.909 517.755 171.13 516.94 171.13ZM521.771 171V161.64H523.201V163.85C523.201 163.971 523.197 164.106 523.188 164.253C523.179 164.392 523.166 164.526 523.149 164.656C523.14 164.777 523.132 164.881 523.123 164.968C523.123 165.046 523.123 165.085 523.123 165.085H523.24C523.335 164.652 523.548 164.318 523.877 164.084C524.215 163.841 524.64 163.72 525.151 163.72C525.506 163.72 525.827 163.781 526.113 163.902C526.408 164.023 526.655 164.197 526.854 164.422C527.062 164.647 527.222 164.92 527.335 165.241C527.448 165.553 527.504 165.904 527.504 166.294V171H526.087V166.489C526.087 166.004 525.957 165.627 525.697 165.358C525.446 165.081 525.099 164.942 524.657 164.942C524.206 164.942 523.851 165.085 523.591 165.371C523.331 165.657 523.201 166.047 523.201 166.541V171H521.771ZM539.441 161.51H540.923V163.499L540.78 165.41H539.61L539.441 163.499V161.51ZM544.844 171V163.85H546.027V164.903H546.131C546.157 164.53 546.27 164.24 546.469 164.032C546.677 163.824 546.954 163.72 547.301 163.72C547.63 163.72 547.89 163.82 548.081 164.019C548.272 164.218 548.41 164.513 548.497 164.903H548.588C548.614 164.53 548.731 164.24 548.939 164.032C549.147 163.824 549.429 163.72 549.784 163.72C550.217 163.72 550.564 163.885 550.824 164.214C551.093 164.535 551.227 164.981 551.227 165.553V171H549.914V165.618C549.914 165.341 549.858 165.128 549.745 164.981C549.632 164.834 549.468 164.76 549.251 164.76C548.792 164.76 548.562 165.063 548.562 165.67V171H547.509V165.618C547.509 165.341 547.448 165.128 547.327 164.981C547.206 164.834 547.032 164.76 546.807 164.76C546.356 164.76 546.131 165.063 546.131 165.67V171H544.844ZM552.652 168.959C552.652 168.266 552.89 167.715 553.367 167.308C553.852 166.901 554.506 166.697 555.33 166.697H557.267V166.099C557.267 165.718 557.132 165.423 556.864 165.215C556.604 164.998 556.231 164.89 555.746 164.89C555.373 164.89 555.057 164.959 554.797 165.098C554.537 165.228 554.363 165.414 554.277 165.657H552.873C552.985 165.059 553.302 164.587 553.822 164.24C554.342 163.893 554.987 163.72 555.759 163.72C556.669 163.72 557.384 163.928 557.904 164.344C558.432 164.76 558.697 165.332 558.697 166.06V171H557.371V169.609H557.267C557.171 170.077 556.916 170.45 556.5 170.727C556.092 170.996 555.585 171.13 554.979 171.13C554.268 171.13 553.7 170.935 553.276 170.545C552.86 170.146 552.652 169.618 552.652 168.959ZM554.082 168.842C554.082 169.206 554.199 169.488 554.433 169.687C554.667 169.886 554.996 169.986 555.421 169.986C555.689 169.986 555.936 169.951 556.162 169.882C556.387 169.813 556.582 169.717 556.747 169.596C556.911 169.466 557.037 169.319 557.124 169.154C557.219 168.981 557.267 168.794 557.267 168.595V167.698H555.343C554.953 167.698 554.645 167.798 554.42 167.997C554.194 168.196 554.082 168.478 554.082 168.842ZM560.577 169.206H562.059C562.111 169.44 562.254 169.626 562.488 169.765C562.73 169.904 563.025 169.973 563.372 169.973H563.84C564.264 169.973 564.594 169.886 564.828 169.713C565.07 169.54 565.192 169.301 565.192 168.998C565.192 168.478 564.81 168.166 564.048 168.062L563.008 167.919C562.236 167.815 561.664 167.594 561.292 167.256C560.928 166.909 560.746 166.424 560.746 165.8C560.746 165.141 560.975 164.63 561.435 164.266C561.903 163.902 562.566 163.72 563.424 163.72H563.879C564.633 163.72 565.244 163.889 565.712 164.227C566.188 164.556 566.47 165.007 566.557 165.579H565.088C565.036 165.362 564.901 165.193 564.685 165.072C564.468 164.942 564.199 164.877 563.879 164.877H563.424C563.016 164.877 562.704 164.955 562.488 165.111C562.271 165.258 562.163 165.484 562.163 165.787C562.163 166.038 562.241 166.233 562.397 166.372C562.561 166.511 562.821 166.602 563.177 166.645L564.243 166.788C565.057 166.901 565.655 167.13 566.037 167.477C566.418 167.824 566.609 168.318 566.609 168.959C566.609 169.652 566.37 170.19 565.894 170.571C565.417 170.944 564.732 171.13 563.84 171.13H563.372C562.574 171.13 561.924 170.961 561.422 170.623C560.928 170.276 560.646 169.804 560.577 169.206ZM568.19 163.85H570.205V161.64H571.635V163.85H574.378V165.137H571.635V168.946C571.635 169.18 571.704 169.366 571.843 169.505C571.981 169.635 572.176 169.7 572.428 169.7H574.248V171H572.363C571.695 171 571.167 170.814 570.777 170.441C570.395 170.068 570.205 169.57 570.205 168.946V165.137H568.19V163.85ZM576.206 166.489C576.206 166.064 576.275 165.683 576.414 165.345C576.552 164.998 576.752 164.708 577.012 164.474C577.272 164.231 577.588 164.045 577.961 163.915C578.333 163.785 578.749 163.72 579.209 163.72C579.668 163.72 580.08 163.785 580.444 163.915C580.816 164.045 581.133 164.231 581.393 164.474C581.653 164.708 581.852 164.998 581.991 165.345C582.129 165.683 582.199 166.064 582.199 166.489V167.802H577.623V168.309C577.623 168.82 577.761 169.219 578.039 169.505C578.325 169.791 578.715 169.934 579.209 169.934C579.573 169.934 579.889 169.878 580.158 169.765C580.426 169.652 580.621 169.483 580.743 169.258H582.147C582.069 169.544 581.943 169.804 581.77 170.038C581.596 170.263 581.38 170.458 581.12 170.623C580.868 170.788 580.578 170.913 580.249 171C579.928 171.087 579.581 171.13 579.209 171.13C578.749 171.13 578.333 171.065 577.961 170.935C577.597 170.805 577.285 170.619 577.025 170.376C576.765 170.133 576.561 169.843 576.414 169.505C576.275 169.158 576.206 168.773 576.206 168.348V166.489ZM577.623 166.762H580.795V166.489C580.795 165.995 580.656 165.609 580.379 165.332C580.101 165.055 579.711 164.916 579.209 164.916C578.706 164.916 578.316 165.055 578.039 165.332C577.761 165.609 577.623 165.995 577.623 166.489V166.762ZM585.782 163.85V165.085H585.899C585.994 164.652 586.215 164.318 586.562 164.084C586.917 163.841 587.359 163.72 587.888 163.72C588.65 163.72 589.248 163.958 589.682 164.435C590.115 164.903 590.332 165.557 590.332 166.398V166.866H588.863V166.541C588.863 166.038 588.728 165.648 588.46 165.371C588.191 165.085 587.823 164.942 587.355 164.942C586.895 164.942 586.531 165.085 586.263 165.371C585.994 165.657 585.86 166.047 585.86 166.541V171H584.43V163.85H585.782ZM594.005 161.51H595.487V163.499L595.344 165.41H594.174L594.005 163.499V161.51ZM436.157 185.7H438.731V181.137H436.482V179.85H440.122V185.7H442.215V187H436.157V185.7ZM438.211 177.887C438.211 177.636 438.289 177.436 438.445 177.289C438.61 177.133 438.826 177.055 439.095 177.055H439.407C439.676 177.055 439.888 177.133 440.044 177.289C440.209 177.436 440.291 177.636 440.291 177.887C440.291 178.138 440.209 178.338 440.044 178.485C439.888 178.632 439.671 178.706 439.394 178.706H439.095C438.826 178.706 438.61 178.632 438.445 178.485C438.289 178.338 438.211 178.138 438.211 177.887ZM443.822 179.85H445.174V181.085H445.291C445.386 180.643 445.599 180.305 445.928 180.071C446.257 179.837 446.682 179.72 447.202 179.72C447.575 179.72 447.904 179.785 448.19 179.915C448.485 180.036 448.732 180.21 448.931 180.435C449.139 180.66 449.295 180.933 449.399 181.254C449.503 181.566 449.555 181.913 449.555 182.294V187H448.125V182.489C448.125 181.995 447.999 181.614 447.748 181.345C447.497 181.076 447.15 180.942 446.708 180.942C446.257 180.942 445.902 181.085 445.642 181.371C445.382 181.657 445.252 182.047 445.252 182.541V187H443.822V179.85ZM451.266 179.85H453.281V177.64H454.711V179.85H457.454V181.137H454.711V184.946C454.711 185.18 454.78 185.366 454.919 185.505C455.058 185.635 455.253 185.7 455.504 185.7H457.324V187H455.439C454.772 187 454.243 186.814 453.853 186.441C453.472 186.068 453.281 185.57 453.281 184.946V181.137H451.266V179.85ZM462.285 187.13C461.825 187.13 461.409 187.065 461.037 186.935C460.673 186.796 460.361 186.606 460.101 186.363C459.841 186.112 459.637 185.813 459.49 185.466C459.351 185.119 459.282 184.734 459.282 184.309V182.528C459.282 182.103 459.351 181.718 459.49 181.371C459.637 181.024 459.841 180.73 460.101 180.487C460.361 180.236 460.673 180.045 461.037 179.915C461.409 179.776 461.825 179.707 462.285 179.707C462.744 179.707 463.156 179.772 463.52 179.902C463.892 180.032 464.209 180.223 464.469 180.474C464.729 180.717 464.928 181.011 465.067 181.358C465.214 181.696 465.288 182.082 465.288 182.515V184.309C465.288 184.734 465.218 185.124 465.08 185.479C464.941 185.826 464.742 186.12 464.482 186.363C464.222 186.606 463.905 186.796 463.533 186.935C463.16 187.065 462.744 187.13 462.285 187.13ZM460.712 184.309C460.712 184.794 460.85 185.176 461.128 185.453C461.405 185.73 461.791 185.869 462.285 185.869C462.77 185.869 463.151 185.73 463.429 185.453C463.715 185.176 463.858 184.794 463.858 184.309V182.528C463.858 182.043 463.715 181.661 463.429 181.384C463.151 181.107 462.77 180.968 462.285 180.968C461.799 180.968 461.414 181.107 461.128 181.384C460.85 181.661 460.712 182.043 460.712 182.528V184.309ZM476.731 180.604V179.59C476.731 178.992 476.921 178.52 477.303 178.173C477.693 177.818 478.221 177.64 478.889 177.64H480.982V178.914H478.902C478.668 178.914 478.486 178.975 478.356 179.096C478.226 179.209 478.161 179.378 478.161 179.603V180.604H480.982V181.904H478.161V187H476.731V181.904H474.703V180.604H476.731ZM485.67 187.13C485.21 187.13 484.794 187.065 484.422 186.935C484.058 186.796 483.746 186.606 483.486 186.363C483.226 186.112 483.022 185.813 482.875 185.466C482.736 185.119 482.667 184.734 482.667 184.309V182.528C482.667 182.103 482.736 181.718 482.875 181.371C483.022 181.024 483.226 180.73 483.486 180.487C483.746 180.236 484.058 180.045 484.422 179.915C484.794 179.776 485.21 179.707 485.67 179.707C486.129 179.707 486.541 179.772 486.905 179.902C487.277 180.032 487.594 180.223 487.854 180.474C488.114 180.717 488.313 181.011 488.452 181.358C488.599 181.696 488.673 182.082 488.673 182.515V184.309C488.673 184.734 488.603 185.124 488.465 185.479C488.326 185.826 488.127 186.12 487.867 186.363C487.607 186.606 487.29 186.796 486.918 186.935C486.545 187.065 486.129 187.13 485.67 187.13ZM484.097 184.309C484.097 184.794 484.235 185.176 484.513 185.453C484.79 185.73 485.176 185.869 485.67 185.869C486.155 185.869 486.536 185.73 486.814 185.453C487.1 185.176 487.243 184.794 487.243 184.309V182.528C487.243 182.043 487.1 181.661 486.814 181.384C486.536 181.107 486.155 180.968 485.67 180.968C485.184 180.968 484.799 181.107 484.513 181.384C484.235 181.661 484.097 182.043 484.097 182.528V184.309ZM493.464 187.13C493.005 187.13 492.589 187.065 492.216 186.935C491.852 186.796 491.54 186.606 491.28 186.363C491.02 186.112 490.817 185.813 490.669 185.466C490.531 185.119 490.461 184.734 490.461 184.309V182.528C490.461 182.103 490.531 181.718 490.669 181.371C490.817 181.024 491.02 180.73 491.28 180.487C491.54 180.236 491.852 180.045 492.216 179.915C492.589 179.776 493.005 179.707 493.464 179.707C493.924 179.707 494.335 179.772 494.699 179.902C495.072 180.032 495.388 180.223 495.648 180.474C495.908 180.717 496.108 181.011 496.246 181.358C496.394 181.696 496.467 182.082 496.467 182.515V184.309C496.467 184.734 496.398 185.124 496.259 185.479C496.121 185.826 495.921 186.12 495.661 186.363C495.401 186.606 495.085 186.796 494.712 186.935C494.34 187.065 493.924 187.13 493.464 187.13ZM491.891 184.309C491.891 184.794 492.03 185.176 492.307 185.453C492.585 185.73 492.97 185.869 493.464 185.869C493.95 185.869 494.331 185.73 494.608 185.453C494.894 185.176 495.037 184.794 495.037 184.309V182.528C495.037 182.043 494.894 181.661 494.608 181.384C494.331 181.107 493.95 180.968 493.464 180.968C492.979 180.968 492.593 181.107 492.307 181.384C492.03 181.661 491.891 182.043 491.891 182.528V184.309ZM498.035 179.85H500.05V177.64H501.48V179.85H504.223V181.137H501.48V184.946C501.48 185.18 501.55 185.366 501.688 185.505C501.827 185.635 502.022 185.7 502.273 185.7H504.093V187H502.208C501.541 187 501.012 186.814 500.622 186.441C500.241 186.068 500.05 185.57 500.05 184.946V181.137H498.035V179.85ZM506.051 182.489C506.051 182.064 506.121 181.683 506.259 181.345C506.398 180.998 506.597 180.708 506.857 180.474C507.117 180.231 507.434 180.045 507.806 179.915C508.179 179.785 508.595 179.72 509.054 179.72C509.514 179.72 509.925 179.785 510.289 179.915C510.662 180.045 510.978 180.231 511.238 180.474C511.498 180.708 511.698 180.998 511.836 181.345C511.975 181.683 512.044 182.064 512.044 182.489V183.802H507.468V184.309C507.468 184.82 507.607 185.219 507.884 185.505C508.17 185.791 508.56 185.934 509.054 185.934C509.418 185.934 509.735 185.878 510.003 185.765C510.272 185.652 510.467 185.483 510.588 185.258H511.992C511.914 185.544 511.789 185.804 511.615 186.038C511.442 186.263 511.225 186.458 510.965 186.623C510.714 186.788 510.424 186.913 510.094 187C509.774 187.087 509.427 187.13 509.054 187.13C508.595 187.13 508.179 187.065 507.806 186.935C507.442 186.805 507.13 186.619 506.87 186.376C506.61 186.133 506.407 185.843 506.259 185.505C506.121 185.158 506.051 184.773 506.051 184.348V182.489ZM507.468 182.762H510.64V182.489C510.64 181.995 510.502 181.609 510.224 181.332C509.947 181.055 509.557 180.916 509.054 180.916C508.552 180.916 508.162 181.055 507.884 181.332C507.607 181.609 507.468 181.995 507.468 182.489V182.762ZM515.627 179.85V181.085H515.744C515.84 180.652 516.061 180.318 516.407 180.084C516.763 179.841 517.205 179.72 517.733 179.72C518.496 179.72 519.094 179.958 519.527 180.435C519.961 180.903 520.177 181.557 520.177 182.398V182.866H518.708V182.541C518.708 182.038 518.574 181.648 518.305 181.371C518.037 181.085 517.668 180.942 517.2 180.942C516.741 180.942 516.377 181.085 516.108 181.371C515.84 181.657 515.705 182.047 515.705 182.541V187H514.275V179.85H515.627ZM522.044 182.06H527.244V183.36H522.044V182.06ZM531.035 179.85V184.387C531.035 185.384 531.499 185.882 532.426 185.882C533.371 185.882 533.843 185.384 533.843 184.387V179.85H535.273V184.387C535.273 185.262 535.026 185.938 534.532 186.415C534.038 186.892 533.336 187.13 532.426 187.13C531.533 187.13 530.84 186.892 530.346 186.415C529.852 185.93 529.605 185.254 529.605 184.387V179.85H531.035ZM537.374 179.85H538.739V181.085H538.843C538.938 180.652 539.155 180.318 539.493 180.084C539.84 179.841 540.273 179.72 540.793 179.72C541.157 179.72 541.491 179.785 541.794 179.915C542.097 180.045 542.353 180.231 542.561 180.474C542.778 180.717 542.942 181.011 543.055 181.358C543.176 181.696 543.237 182.082 543.237 182.515V184.309C543.237 184.742 543.176 185.137 543.055 185.492C542.942 185.839 542.778 186.133 542.561 186.376C542.353 186.619 542.097 186.805 541.794 186.935C541.491 187.065 541.157 187.13 540.793 187.13C540.273 187.13 539.84 187.013 539.493 186.779C539.155 186.536 538.938 186.198 538.843 185.765H538.739C538.739 185.774 538.743 185.821 538.752 185.908C538.761 185.995 538.765 186.099 538.765 186.22C538.774 186.341 538.782 186.471 538.791 186.61C538.8 186.749 538.804 186.879 538.804 187V189.21H537.374V179.85ZM538.804 182.541V184.309C538.804 184.786 538.934 185.167 539.194 185.453C539.463 185.739 539.822 185.882 540.273 185.882C540.75 185.882 541.122 185.739 541.391 185.453C541.668 185.167 541.807 184.781 541.807 184.296V182.541C541.807 182.047 541.668 181.661 541.391 181.384C541.122 181.098 540.75 180.955 540.273 180.955C539.831 180.955 539.476 181.098 539.207 181.384C538.938 181.67 538.804 182.056 538.804 182.541ZM545.026 182.515C545.026 182.082 545.082 181.696 545.195 181.358C545.316 181.011 545.481 180.717 545.689 180.474C545.906 180.231 546.166 180.045 546.469 179.915C546.772 179.785 547.106 179.72 547.47 179.72C547.99 179.72 548.419 179.841 548.757 180.084C549.104 180.318 549.325 180.652 549.42 181.085H549.537C549.528 180.938 549.52 180.79 549.511 180.643C549.494 180.513 549.481 180.379 549.472 180.24C549.472 180.093 549.472 179.963 549.472 179.85V177.64H550.889V187H549.537V185.765H549.42C549.325 186.198 549.104 186.536 548.757 186.779C548.419 187.013 547.99 187.13 547.47 187.13C547.106 187.13 546.772 187.065 546.469 186.935C546.166 186.805 545.906 186.619 545.689 186.376C545.481 186.133 545.316 185.839 545.195 185.492C545.082 185.137 545.026 184.742 545.026 184.309V182.515ZM546.456 182.541V184.296C546.456 184.781 546.59 185.167 546.859 185.453C547.136 185.739 547.513 185.882 547.99 185.882C548.441 185.882 548.8 185.739 549.069 185.453C549.338 185.167 549.472 184.786 549.472 184.309V182.541C549.472 182.056 549.333 181.67 549.056 181.384C548.787 181.098 548.432 180.955 547.99 180.955C547.513 180.955 547.136 181.098 546.859 181.384C546.59 181.661 546.456 182.047 546.456 182.541ZM552.652 184.959C552.652 184.266 552.89 183.715 553.367 183.308C553.852 182.901 554.506 182.697 555.33 182.697H557.267V182.099C557.267 181.718 557.132 181.423 556.864 181.215C556.604 180.998 556.231 180.89 555.746 180.89C555.373 180.89 555.057 180.959 554.797 181.098C554.537 181.228 554.363 181.414 554.277 181.657H552.873C552.985 181.059 553.302 180.587 553.822 180.24C554.342 179.893 554.987 179.72 555.759 179.72C556.669 179.72 557.384 179.928 557.904 180.344C558.432 180.76 558.697 181.332 558.697 182.06V187H557.371V185.609H557.267C557.171 186.077 556.916 186.45 556.5 186.727C556.092 186.996 555.585 187.13 554.979 187.13C554.268 187.13 553.7 186.935 553.276 186.545C552.86 186.146 552.652 185.618 552.652 184.959ZM554.082 184.842C554.082 185.206 554.199 185.488 554.433 185.687C554.667 185.886 554.996 185.986 555.421 185.986C555.689 185.986 555.936 185.951 556.162 185.882C556.387 185.813 556.582 185.717 556.747 185.596C556.911 185.466 557.037 185.319 557.124 185.154C557.219 184.981 557.267 184.794 557.267 184.595V183.698H555.343C554.953 183.698 554.645 183.798 554.42 183.997C554.194 184.196 554.082 184.478 554.082 184.842ZM560.395 179.85H562.41V177.64H563.84V179.85H566.583V181.137H563.84V184.946C563.84 185.18 563.909 185.366 564.048 185.505C564.186 185.635 564.381 185.7 564.633 185.7H566.453V187H564.568C563.9 187 563.372 186.814 562.982 186.441C562.6 186.068 562.41 185.57 562.41 184.946V181.137H560.395V179.85ZM568.411 182.489C568.411 182.064 568.48 181.683 568.619 181.345C568.757 180.998 568.957 180.708 569.217 180.474C569.477 180.231 569.793 180.045 570.166 179.915C570.538 179.785 570.954 179.72 571.414 179.72C571.873 179.72 572.285 179.785 572.649 179.915C573.021 180.045 573.338 180.231 573.598 180.474C573.858 180.708 574.057 180.998 574.196 181.345C574.334 181.683 574.404 182.064 574.404 182.489V183.802H569.828V184.309C569.828 184.82 569.966 185.219 570.244 185.505C570.53 185.791 570.92 185.934 571.414 185.934C571.778 185.934 572.094 185.878 572.363 185.765C572.631 185.652 572.826 185.483 572.948 185.258H574.352C574.274 185.544 574.148 185.804 573.975 186.038C573.801 186.263 573.585 186.458 573.325 186.623C573.073 186.788 572.783 186.913 572.454 187C572.133 187.087 571.786 187.13 571.414 187.13C570.954 187.13 570.538 187.065 570.166 186.935C569.802 186.805 569.49 186.619 569.23 186.376C568.97 186.133 568.766 185.843 568.619 185.505C568.48 185.158 568.411 184.773 568.411 184.348V182.489ZM569.828 182.762H573V182.489C573 181.995 572.861 181.609 572.584 181.332C572.306 181.055 571.916 180.916 571.414 180.916C570.911 180.916 570.521 181.055 570.244 181.332C569.966 181.609 569.828 181.995 569.828 182.489V182.762Z" fill="#333333"/>
<path d="M437.99 198.7C438.35 198.7 438.677 198.757 438.97 198.87C439.27 198.977 439.523 199.13 439.73 199.33C439.943 199.53 440.107 199.773 440.22 200.06C440.34 200.34 440.4 200.65 440.4 200.99C440.4 201.43 440.303 201.877 440.11 202.33C439.923 202.783 439.66 203.287 439.32 203.84L437.98 206H436.7L438.26 203.6C438.413 203.367 438.537 203.18 438.63 203.04C438.723 202.9 438.797 202.793 438.85 202.72C438.91 202.633 438.953 202.577 438.98 202.55H438.86C438.793 202.67 438.703 202.777 438.59 202.87C438.49 202.95 438.36 203.023 438.2 203.09C438.047 203.157 437.853 203.19 437.62 203.19C437.32 203.19 437.047 203.137 436.8 203.03C436.553 202.923 436.34 202.777 436.16 202.59C435.987 202.397 435.85 202.163 435.75 201.89C435.65 201.617 435.6 201.317 435.6 200.99C435.6 200.65 435.657 200.34 435.77 200.06C435.89 199.78 436.053 199.54 436.26 199.34C436.473 199.133 436.727 198.977 437.02 198.87C437.313 198.757 437.637 198.7 437.99 198.7ZM436.7 200.98C436.7 201.387 436.82 201.713 437.06 201.96C437.3 202.2 437.61 202.32 437.99 202.32C438.377 202.32 438.69 202.197 438.93 201.95C439.177 201.703 439.3 201.38 439.3 200.98C439.3 200.58 439.18 200.26 438.94 200.02C438.7 199.773 438.383 199.65 437.99 199.65C437.61 199.65 437.3 199.773 437.06 200.02C436.82 200.26 436.7 200.58 436.7 200.98ZM441.676 200.88V198.8H446.326V199.98L443.786 206H442.576L444.986 200.46C445.079 200.253 445.156 200.1 445.216 200C445.256 199.94 445.293 199.887 445.326 199.84V199.79C445.219 199.797 445.119 199.8 445.026 199.8C444.939 199.8 444.849 199.803 444.756 199.81C444.669 199.81 444.593 199.81 444.526 199.81H442.726V200.88H441.676ZM447.822 205.03H449.752V200.41C449.752 200.237 449.756 200.083 449.762 199.95C449.776 199.81 449.782 199.737 449.782 199.73H449.762C449.722 199.77 449.679 199.81 449.632 199.85C449.592 199.883 449.549 199.92 449.502 199.96C449.456 199.993 449.406 200.027 449.352 200.06L447.942 201V199.92L449.542 198.8H450.852V205.03H452.442V206H447.822V205.03ZM456.568 198.8H457.778L454.788 203.16V203.55H456.988V201.9H458.088V206H456.988V204.52H453.728V202.96L456.568 198.8ZM459.664 200.88V198.8H464.314V199.98L461.774 206H460.564L462.974 200.46C463.068 200.253 463.144 200.1 463.204 200C463.244 199.94 463.281 199.887 463.314 199.84V199.79C463.208 199.797 463.108 199.8 463.014 199.8C462.928 199.8 462.838 199.803 462.744 199.81C462.658 199.81 462.581 199.81 462.514 199.81H460.714V200.88H459.664ZM465.66 200.88V198.8H470.31V199.98L467.77 206H466.56L468.97 200.46C469.064 200.253 469.14 200.1 469.2 200C469.24 199.94 469.277 199.887 469.31 199.84V199.79C469.204 199.797 469.104 199.8 469.01 199.8C468.924 199.8 468.834 199.803 468.74 199.81C468.654 199.81 468.577 199.81 468.51 199.81H466.71V200.88H465.66ZM471.807 205.03H473.737V200.41C473.737 200.237 473.74 200.083 473.747 199.95C473.76 199.81 473.767 199.737 473.767 199.73H473.747C473.707 199.77 473.663 199.81 473.617 199.85C473.577 199.883 473.533 199.92 473.487 199.96C473.44 199.993 473.39 200.027 473.337 200.06L471.927 201V199.92L473.527 198.8H474.837V205.03H476.427V206H471.807V205.03Z" fill="#B0B0B0"/>
</g>
<defs>
<filter id="filter0_dd" x="405" y="125" width="242" height="119" filterUnits="userSpaceOnUse" color-interpolation-filters="sRGB">
<feFlood flood-opacity="0" result="BackgroundImageFix"/>
<feColorMatrix in="SourceAlpha" type="matrix" values="0 0 0 0 0 0 0 0 0 0 0 0 0 0 0 0 0 0 127 0"/>
<feOffset/>
<feGaussianBlur stdDeviation="3"/>
<feColorMatrix type="matrix" values="0 0 0 0 0.2 0 0 0 0 0.2 0 0 0 0 0.2 0 0 0 0.13 0"/>
<feBlend mode="normal" in2="BackgroundImageFix" result="effect1_dropShadow"/>
<feColorMatrix in="SourceAlpha" type="matrix" values="0 0 0 0 0 0 0 0 0 0 0 0 0 0 0 0 0 0 127 0"/>
<feOffset dy="6"/>
<feGaussianBlur stdDeviation="10"/>
<feColorMatrix type="matrix" values="0 0 0 0 0.2 0 0 0 0 0.2 0 0 0 0 0.2 0 0 0 0.09 0"/>
<feBlend mode="normal" in2="effect1_dropShadow" result="effect2_dropShadow"/>
<feBlend mode="normal" in="SourceGraphic" in2="effect2_dropShadow" result="shape"/>
</filter>
</defs>
</svg>
