<?xml version="1.0" encoding="UTF-8" standalone="no"?>
<!-- Created with Inkscape (http://www.inkscape.org/) -->

<svg
   xmlns:dc="http://purl.org/dc/elements/1.1/"
   xmlns:cc="http://creativecommons.org/ns#"
   xmlns:rdf="http://www.w3.org/1999/02/22-rdf-syntax-ns#"
   xmlns:svg="http://www.w3.org/2000/svg"
   xmlns="http://www.w3.org/2000/svg"
   xmlns:sodipodi="http://sodipodi.sourceforge.net/DTD/sodipodi-0.dtd"
   xmlns:inkscape="http://www.inkscape.org/namespaces/inkscape"
   width="210mm"
   height="297mm"
   viewBox="0 0 210 297"
   version="1.1"
   id="svg8"
   inkscape:version="0.92.3 (2405546, 2018-03-11)"
   sodipodi:docname="moon.svg">
  <defs
     id="defs2" />
  <sodipodi:namedview
     id="base"
     pagecolor="#ffffff"
     bordercolor="#666666"
     borderopacity="1.0"
     inkscape:pageopacity="0"
     inkscape:pageshadow="2"
     inkscape:zoom="0.9899495"
     inkscape:cx="76.627252"
     inkscape:cy="559.34087"
     inkscape:document-units="mm"
     inkscape:current-layer="layer1"
     showgrid="false"
     inkscape:window-width="1920"
     inkscape:window-height="1026"
     inkscape:window-x="1920"
     inkscape:window-y="28"
     inkscape:window-maximized="1"
     inkscape:pagecheckerboard="true"
     showguides="false" />
  <metadata
     id="metadata5">
    <rdf:RDF>
      <cc:Work
         rdf:about="">
        <dc:format>image/svg+xml</dc:format>
        <dc:type
           rdf:resource="http://purl.org/dc/dcmitype/StillImage" />
        <dc:title />
      </cc:Work>
    </rdf:RDF>
  </metadata>
  <g
     inkscape:label="Layer 1"
     inkscape:groupmode="layer"
     id="layer1">
    <path
       style="opacity:1;fill:#ffffff;stroke-width:0.26458332"
       d="m 135.05056,52.557875 a 89.958335,89.958335 0 0 0 -89.95833,89.958335 89.958335,89.958335 0 0 0 89.95833,89.95833 89.958335,89.958335 0 0 0 26.56014,-4.10724 63.877414,87.664405 0 0 1 -59.51368,-87.45254 63.877414,87.664405 0 0 1 52.38543,-86.165286 89.958335,89.958335 0 0 0 -19.43189,-2.191599 z"
       id="path3721"
       inkscape:connector-curvature="0" />
    <path
       style="opacity:0;fill:#ececec;fill-opacity:0.35125451;stroke:#ff0000;stroke-width:2.02030516"
       d="M 474.84908,875.93959 C 291.98053,854.9861 158.0395,694.02441 172.74775,512.89372 177.66076,452.39043 195.82038,399.85571 228.88257,350.49894 301.42936,242.1977 432.68464,183.58706 558.51094,203.30691 c 19.82572,3.10715 20.24877,3.77892 5.60279,8.89663 -41.73152,14.58214 -84.02855,49.71471 -114.46717,95.07822 -123.80256,184.50629 -60.5502,481.83172 116.22886,546.34811 8.75881,3.19656 20.23089,6.45764 25.49352,7.24681 5.26263,0.78919 9.56841,2.17878 9.56841,3.08798 0,1.61329 -17.03792,5.7311 -41.41626,10.00968 -17.13887,3.00799 -65.72898,4.13578 -84.67201,1.96525 z"
       id="path816"
       inkscape:connector-curvature="0"
       transform="scale(0.26458333)" />
    <path
       style="opacity:0;fill:#ececec;fill-opacity:0.35125451;stroke:#ff0000;stroke-width:2.02030516"
       d="M 475.07234,875.93761 C 374.6508,864.57153 285.19402,810.577 229.28994,727.58774 c -76.83533,-114.06162 -76.83533,-263.90595 0,-377.96756 73.0221,-108.40088 201.61708,-165.31806 330.27536,-146.18252 8.53169,1.26893 15.51214,2.96186 15.51214,3.76207 0,0.80021 -3.71736,2.56867 -8.2608,3.92992 -4.54343,1.36124 -15.72024,6.31335 -24.83735,11.00468 -144.73257,74.47407 -201.92718,314.74976 -117.16489,492.21203 20.89507,43.74685 52.96549,84.75517 85.37442,109.16789 23.7496,17.8899 69.72938,38.33852 86.20611,38.33852 15.86574,0 -5.99493,7.0786 -37.47993,12.13621 -18.80229,3.02032 -64.9069,4.09185 -83.84266,1.94863 z"
       id="path818"
       inkscape:connector-curvature="0"
       transform="scale(0.26458333)" />
    <path
       style="opacity:0;fill:#ffffff;fill-opacity:0.35125451;stroke:#ff0000;stroke-width:2.02030516"
       d="M 475.07234,875.93761 C 374.6508,864.57153 285.19402,810.577 229.28994,727.58774 c -76.83533,-114.06162 -76.83533,-263.90595 0,-377.96756 73.0221,-108.40088 201.61708,-165.31806 330.27536,-146.18252 8.53169,1.26893 15.51214,2.96186 15.51214,3.76207 0,0.80021 -3.71736,2.56867 -8.2608,3.92992 -4.54343,1.36124 -15.72024,6.31335 -24.83735,11.00468 -144.73257,74.47407 -201.92718,314.74976 -117.16489,492.21203 20.89507,43.74685 52.96549,84.75517 85.37442,109.16789 23.7496,17.8899 69.72938,38.33852 86.20611,38.33852 15.86574,0 -5.99493,7.0786 -37.47993,12.13621 -18.80229,3.02032 -64.9069,4.09185 -83.84266,1.94863 z"
       id="path820"
       inkscape:connector-curvature="0"
       transform="scale(0.26458333)" />
    <path
       style="opacity:0;fill:#ffffff;fill-opacity:0.35125451;stroke:#ff0000;stroke-width:2.02030516"
       d="M 475.07234,875.93761 C 374.6508,864.57153 285.19402,810.577 229.28994,727.58774 c -76.83533,-114.06162 -76.83533,-263.90595 0,-377.96756 73.0221,-108.40088 201.61708,-165.31806 330.27536,-146.18252 8.53169,1.26893 15.51214,2.96186 15.51214,3.76207 0,0.80021 -3.71736,2.56867 -8.2608,3.92992 -4.54343,1.36124 -15.72024,6.31335 -24.83735,11.00468 -144.73257,74.47407 -201.92718,314.74976 -117.16489,492.21203 20.89507,43.74685 52.96549,84.75517 85.37442,109.16789 23.7496,17.8899 69.72938,38.33852 86.20611,38.33852 15.86574,0 -5.99493,7.0786 -37.47993,12.13621 -18.80229,3.02032 -64.9069,4.09185 -83.84266,1.94863 z"
       id="path822"
       inkscape:connector-curvature="0"
       transform="scale(0.26458333)" />
    <path
       style="opacity:0;fill:#f9f9f9;fill-opacity:0.35125451;stroke:#ff0000;stroke-width:1.01015258"
       d="M 481.90045,877.02655 C 410.80844,870.80369 343.30394,842.48307 289.46639,796.29336 275.77543,784.54725 253.28417,760.94775 242.4943,747.00672 216.54042,713.4731 195.96547,673.30794 184.44552,633.68747 c -9.25906,-31.84462 -13.01429,-59.18223 -13.04341,-94.95434 -0.021,-25.81297 0.70162,-35.12498 4.46821,-57.5787 18.83516,-112.28203 95.63061,-209.63592 200.73506,-254.47262 46.56054,-19.86234 91.89711,-28.45994 142.54715,-27.03256 22.74964,0.64112 28.51618,1.20013 49.81677,4.82921 l 12.82263,2.18466 -11.81248,3.95428 c -87.20763,29.19319 -155.47668,122.43714 -177.36661,242.25276 -9.18992,50.30142 -9.19577,109.3328 -0.0159,159.6041 24.47459,134.02816 105.87506,232.65256 205.8313,249.38418 l 10.24628,1.71512 -17.17259,4.25892 c -36.13641,8.96208 -75.00363,12.2225 -109.60155,9.19407 z"
       id="path826"
       inkscape:connector-curvature="0"
       transform="scale(0.26458333)" />
  </g>
</svg>
