<?xml version="1.0" encoding="UTF-8"?>
<svg xmlns="http://www.w3.org/2000/svg" xmlns:xlink="http://www.w3.org/1999/xlink" width="12pt" height="13pt" viewBox="0 0 12 13" version="1.1">
<g id="surface1">
<path style=" stroke:none;fill-rule:nonzero;fill:rgb(0%,0%,0%);fill-opacity:1;" d="M 2.519531 8 C 2.519531 8.65625 1.953125 9.195312 1.261719 9.195312 C 0.566406 9.195312 0 8.65625 0 8 C 0 7.34375 0.566406 6.804688 1.261719 6.804688 L 2.519531 6.804688 Z M 3.15625 8 C 3.15625 7.34375 3.722656 6.804688 4.417969 6.804688 C 5.109375 6.804688 5.675781 7.34375 5.675781 8 L 5.675781 10.992188 C 5.675781 11.648438 5.109375 12.1875 4.417969 12.1875 C 3.722656 12.1875 3.15625 11.648438 3.15625 10.992188 Z M 4.417969 3.203125 C 3.722656 3.203125 3.15625 2.664062 3.15625 2.007812 C 3.15625 1.351562 3.722656 0.8125 4.417969 0.8125 C 5.109375 0.8125 5.675781 1.351562 5.675781 2.007812 L 5.675781 3.203125 Z M 4.417969 3.804688 C 5.109375 3.804688 5.675781 4.34375 5.675781 5 C 5.675781 5.65625 5.109375 6.195312 4.417969 6.195312 L 1.261719 6.195312 C 0.566406 6.195312 0 5.65625 0 5 C 0 4.34375 0.566406 3.804688 1.261719 3.804688 Z M 9.480469 5 C 9.480469 4.34375 10.046875 3.804688 10.738281 3.804688 C 11.433594 3.804688 12 4.34375 12 5 C 12 5.65625 11.433594 6.195312 10.738281 6.195312 L 9.480469 6.195312 Z M 8.84375 5 C 8.84375 5.65625 8.277344 6.195312 7.582031 6.195312 C 6.890625 6.195312 6.324219 5.65625 6.324219 5 L 6.324219 2.007812 C 6.324219 1.351562 6.890625 0.8125 7.582031 0.8125 C 8.277344 0.8125 8.84375 1.351562 8.84375 2.007812 Z M 7.582031 9.796875 C 8.277344 9.796875 8.84375 10.335938 8.84375 10.992188 C 8.84375 11.648438 8.277344 12.1875 7.582031 12.1875 C 6.890625 12.1875 6.324219 11.648438 6.324219 10.992188 L 6.324219 9.796875 Z M 7.582031 9.195312 C 6.890625 9.195312 6.324219 8.65625 6.324219 8 C 6.324219 7.34375 6.890625 6.804688 7.582031 6.804688 L 10.738281 6.804688 C 11.433594 6.804688 12 7.34375 12 8 C 12 8.65625 11.433594 9.195312 10.738281 9.195312 Z M 7.582031 9.195312 "/>
</g>
</svg>
